<svg width="28" height="26" viewBox="0 0 28 26" fill="none" xmlns="http://www.w3.org/2000/svg">
    <path d="M0.875015 14.5501H4.86113V25.0773C4.86113 25.322 4.95332 25.5567 5.11741 25.7298C5.28151 25.9028 5.50407 26 5.73613 26H11.2454C11.4774 26 11.7 25.9028 11.8641 25.7298C12.0282 25.5567 12.1204 25.322 12.1204 25.0773V18.0192C12.1204 17.0577 12.9636 16.2754 14 16.2754C15.0365 16.2754 15.8796 17.0577 15.8796 18.0192V25.0773C15.8796 25.322 15.9718 25.5567 16.1359 25.7298C16.3 25.9028 16.5226 26 16.7546 26H22.2639C22.496 26 22.7185 25.9028 22.8826 25.7298C23.0467 25.5567 23.1389 25.322 23.1389 25.0773V14.5501H27.125C27.3013 14.5501 27.4734 14.4939 27.6189 14.389C27.7644 14.2841 27.8764 14.1354 27.9404 13.9622C28.0043 13.789 28.0172 13.5995 27.9773 13.4184C27.9374 13.2374 27.8466 13.0733 27.7167 12.9476L14.5917 0.242969C14.4303 0.0867041 14.2191 0 14 0C13.7809 0 13.5697 0.0867041 13.4083 0.242969L0.283296 12.9476C0.153457 13.0733 0.0626358 13.2374 0.0227272 13.4184C-0.0171814 13.5995 -0.00431745 13.789 0.0596345 13.9622C0.123586 14.1354 0.235645 14.2841 0.381136 14.389C0.526627 14.4939 0.698767 14.5501 0.875015 14.5501ZM14 2.17519L24.8779 12.7047H22.2638C22.0318 12.7047 21.8092 12.8019 21.6451 12.9749C21.481 13.148 21.3888 13.3827 21.3888 13.6274V24.1546H17.6296V18.0192C17.6296 16.0401 16.0014 14.4301 14 14.4301C11.9986 14.4301 10.3704 16.0401 10.3704 18.0192V24.1546H6.61113V13.6274C6.61113 13.3827 6.51894 13.148 6.35485 12.9749C6.19076 12.8019 5.9682 12.7047 5.73613 12.7047H3.12212L14 2.17519Z" fill="white" fill-opacity="0.8" />
</svg>