<svg width="26" height="26" viewBox="0 0 26 26" fill="none" xmlns="http://www.w3.org/2000/svg">
    <path d="M9.75 0H2.4375C1.09338 0 0 1.09338 0 2.4375V9.75C0 11.0941 1.09338 12.1875 2.4375 12.1875H9.75C11.0941 12.1875 12.1875 11.0941 12.1875 9.75V2.4375C12.1875 1.09338 11.0941 0 9.75 0Z" fill="white" />
    <path d="M23.5625 0H16.25C14.9059 0 13.8125 1.09338 13.8125 2.4375V9.75C13.8125 11.0941 14.9059 12.1875 16.25 12.1875H23.5625C24.9066 12.1875 26 11.0941 26 9.75V2.4375C26 1.09338 24.9066 0 23.5625 0Z" fill="white" />
    <path d="M23.5625 13.8125H16.25C14.9059 13.8125 13.8125 14.9059 13.8125 16.25V23.5625C13.8125 24.9066 14.9059 26 16.25 26H23.5625C24.9066 26 26 24.9066 26 23.5625V16.25C26 14.9059 24.9066 13.8125 23.5625 13.8125Z" fill="white" />
    <path d="M9.75 13.8125H2.4375C1.09338 13.8125 0 14.9059 0 16.25V23.5625C0 24.9066 1.09338 26 2.4375 26H9.75C11.0941 26 12.1875 24.9066 12.1875 23.5625V16.25C12.1875 14.9059 11.0941 13.8125 9.75 13.8125Z" fill="white" />
</svg>