<svg xmlns="http://www.w3.org/2000/svg" width="12" height="12" viewBox="0 0 12 12" fill="none">
    <path d="M11.7419 1.50454C12.086 1.16036 12.086 0.602322 11.7419 0.258138C11.3977 -0.086046 10.8396 -0.086046 10.4955 0.258138L6.00064 4.75296L1.50582 0.258138C1.16163 -0.086046 0.603599 -0.086046 0.259415 0.258138C-0.0847695 0.602322 -0.0847695 1.16036 0.259415 1.50454L4.75424 5.99936L0.258139 10.4955C-0.0860461 10.8396 -0.0860461 11.3977 0.258138 11.7419C0.602322 12.086 1.16036 12.086 1.50454 11.7419L6.00064 7.24576L10.4967 11.7419C10.8409 12.086 11.399 12.086 11.7431 11.7419C12.0873 11.3977 12.0873 10.8396 11.7431 10.4955L7.24704 5.99936L11.7419 1.50454Z" fill="white"/>
</svg>