  <svg xmlns="http://www.w3.org/2000/svg" width="20" height="20" viewBox="0 0 20 20" fill="none">
                           <path d="M0.666627 18.1829V18.9989C0.666627 19.2641 0.771978 19.5184 0.959503 19.706C1.14703 19.8935 1.40137 19.9988 1.66657 19.9988H2.99982C3.15784 19.9986 3.31352 19.9607 3.45401 19.8884C3.5945 19.816 3.71576 19.7113 3.80777 19.5829C4.13866 19.8664 4.56423 20.0149 4.9997 19.9988H14.9991C15.4346 20.0149 15.8602 19.8664 16.191 19.5829C16.2831 19.7113 16.4043 19.816 16.5448 19.8884C16.6853 19.9607 16.841 19.9986 16.999 19.9988H18.3322C18.5974 19.9988 18.8518 19.8935 19.0393 19.706C19.2268 19.5184 19.3322 19.2641 19.3322 18.9989V18.1829C19.53 18.0534 19.6937 17.8782 19.8097 17.6722C19.9257 17.4662 19.9906 17.2353 19.9988 16.999C19.9988 15.2424 18.6226 8.50151 17.6323 6.5173C17.3198 5.89235 16.8824 5.3381 16.3473 4.88876C15.8122 4.43942 15.1907 4.10454 14.5211 3.90478C14.8349 3.44093 15.0015 2.89322 14.9991 2.33321C14.9991 0.872297 13.1302 1.52588e-05 9.99941 1.52588e-05C6.86859 1.52588e-05 4.9997 0.872297 4.9997 2.33321C4.99782 2.89339 5.16498 3.44112 5.47934 3.90478C4.80976 4.10454 4.18824 4.43942 3.65314 4.88876C3.11804 5.3381 2.68072 5.89235 2.36819 6.5173C1.37625 8.50151 0 15.2424 0 16.999C0.00823629 17.2353 0.0730819 17.4662 0.189085 17.6722C0.305088 17.8782 0.468858 18.0534 0.666627 18.1829ZM2.99982 19.3322H1.66657C1.57817 19.3322 1.49339 19.2971 1.43088 19.2346C1.36837 19.1721 1.33325 19.0873 1.33325 18.9989V18.3323H3.11982C3.17185 18.5385 3.24327 18.7394 3.33314 18.9322V18.9989C3.33314 19.0873 3.29802 19.1721 3.23551 19.2346C3.173 19.2971 3.08822 19.3322 2.99982 19.3322ZM18.3322 19.3322H16.999C16.9106 19.3322 16.8258 19.2971 16.7633 19.2346C16.7008 19.1721 16.6657 19.0873 16.6657 18.9989V18.9322C16.7555 18.7394 16.827 18.5385 16.879 18.3323H18.6656V18.9989C18.6656 19.0873 18.6304 19.1721 18.5679 19.2346C18.5054 19.2971 18.4206 19.3322 18.3322 19.3322ZM5.66633 2.33321C5.66633 1.3206 7.36623 0.666642 9.99941 0.666642C12.6326 0.666642 14.3325 1.3206 14.3325 2.33321C14.3332 2.84853 14.1491 3.34703 13.8135 3.73813C13.2435 3.64247 13.2066 3.66646 10.3327 3.66646C10.3394 3.5738 10.4327 2.99984 11.666 2.99984C12.2904 3.00851 12.9094 2.8835 13.4815 2.63319C13.5209 2.61369 13.5561 2.58662 13.585 2.55353C13.614 2.52044 13.6361 2.48198 13.6502 2.44033C13.6642 2.39869 13.67 2.35468 13.667 2.31082C13.6641 2.26696 13.6525 2.22411 13.633 2.18472C13.6135 2.14532 13.5865 2.11016 13.5534 2.08122C13.5203 2.05229 13.4818 2.03016 13.4402 2.01609C13.3985 2.00202 13.3545 1.9963 13.3107 1.99924C13.2668 2.00218 13.2239 2.01373 13.1846 2.03323C12.9889 2.11886 12.7851 2.18452 12.5763 2.22922C12.1679 1.78891 11.406 1.33327 9.99941 1.33327C8.59282 1.33327 7.83087 1.78891 7.42256 2.23055C7.21409 2.1858 7.01064 2.12026 6.81526 2.03489C6.77609 2.01533 6.73344 2.00367 6.68976 2.00059C6.64608 1.9975 6.60222 2.00305 6.56068 2.01692C6.51915 2.03078 6.48075 2.05269 6.44768 2.0814C6.41461 2.11011 6.38752 2.14504 6.36796 2.18422C6.34839 2.22339 6.33673 2.26604 6.33365 2.30972C6.33056 2.3534 6.33611 2.39726 6.34998 2.4388C6.36384 2.48033 6.38576 2.51873 6.41446 2.5518C6.44317 2.58487 6.47811 2.61196 6.51728 2.63153C7.09109 2.8766 7.70889 3.00193 8.33284 2.99984C9.59743 2.99984 9.66276 3.6048 9.66609 3.66646C6.77227 3.66646 6.74493 3.64413 6.1853 3.73813C5.84974 3.34703 5.6656 2.84853 5.66633 2.33321ZM9.99941 2.90518C9.73276 2.61253 9.25012 2.34621 8.38584 2.33521C8.89464 2.11255 9.44402 1.9976 9.99941 1.9976C10.5548 1.9976 11.1042 2.11255 11.613 2.33521C10.7487 2.34621 10.2661 2.61253 9.99941 2.90518ZM2.96649 6.81528C3.34627 6.07131 3.92344 5.44619 4.63481 5.00838C5.34617 4.57056 6.1643 4.33694 6.99959 4.33309H12.9992C13.8345 4.33694 14.6526 4.57056 15.364 5.00838C16.0754 5.44619 16.6525 6.07131 17.0323 6.81528C17.9966 8.7405 19.3322 15.2908 19.3322 16.999C19.3205 17.1362 19.2757 17.2685 19.2017 17.3846C19.1277 17.5007 19.0266 17.5971 18.9072 17.6656H17.0043C17.1876 16.2037 16.9147 14.3388 16.66 12.9396C16.0577 9.62478 15.6601 7.93988 15.6567 7.92288C15.635 7.83833 15.581 7.76568 15.5063 7.72053C15.4316 7.67538 15.3422 7.66133 15.2572 7.68142C15.1723 7.7015 15.0986 7.7541 15.052 7.82792C15.0054 7.90174 14.9897 7.99088 15.0081 8.0762C15.0121 8.09287 15.4054 9.7641 16.0047 13.0589C16.5714 16.1804 16.526 18.1629 15.8681 18.9512C15.7627 19.0777 15.6293 19.178 15.4785 19.2441C15.3277 19.3102 15.1636 19.3404 14.9991 19.3322H4.9997C4.83525 19.3404 4.67114 19.3102 4.52033 19.2441C4.36953 19.178 4.23616 19.0777 4.13075 18.9512C3.47279 18.1629 3.4268 16.1804 3.9941 13.0589C4.59406 9.7641 4.9867 8.09254 4.9907 8.0762C5.00914 7.99088 4.99338 7.90174 4.9468 7.82792C4.90022 7.7541 4.82654 7.7015 4.74159 7.68142C4.65664 7.66133 4.56721 7.67538 4.4925 7.72053C4.4178 7.76568 4.36379 7.83833 4.34208 7.92288C4.33808 7.93921 3.9421 9.62478 3.3388 12.9396C3.08482 14.3358 2.81117 16.2024 2.99449 17.6656H1.0916C0.972208 17.5971 0.871189 17.5006 0.797182 17.3846C0.723174 17.2685 0.67838 17.1362 0.666627 16.999C0.666627 15.2908 2.00221 8.7405 2.96649 6.81528Z" fill="white"/>
                           <path d="M6.15027 18.3323H13.8498C14.0783 18.3316 14.2997 18.253 14.4775 18.1096C14.6553 17.9662 14.779 17.7665 14.8281 17.5433C14.9255 17.0377 14.9813 16.5249 14.9947 16.0101C15.0012 15.8649 14.975 15.7201 14.9181 15.5864C14.8611 15.4527 14.7749 15.3334 14.6658 15.2375C14.1059 14.7199 13.6859 14.0692 13.4448 13.3459C13.3773 13.1485 13.2499 12.9769 13.0805 12.8551C12.9111 12.7333 12.7079 12.6672 12.4992 12.666H7.49952C7.29157 12.6661 7.08884 12.731 6.91953 12.8518C6.75022 12.9725 6.62277 13.143 6.55491 13.3396C6.31351 14.0661 5.89211 14.7197 5.32998 15.2395C5.22202 15.3353 5.13688 15.454 5.08082 15.587C5.02476 15.72 4.99919 15.8639 5.006 16.0081C5.01886 16.5228 5.07382 17.0356 5.17033 17.5413C5.21937 17.765 5.34318 17.9652 5.52133 18.109C5.69948 18.2528 5.92133 18.3315 6.15027 18.3323ZM5.76996 15.7404C6.42234 15.1464 6.91028 14.3939 7.18654 13.5559C7.20892 13.4907 7.25112 13.4341 7.30723 13.3941C7.36335 13.354 7.43058 13.3325 7.49952 13.3326H12.4992C12.5695 13.3333 12.6378 13.3559 12.6946 13.3973C12.7514 13.4386 12.7939 13.4966 12.8162 13.5632C13.0922 14.398 13.5787 15.1475 14.2288 15.7394C14.2623 15.7706 14.2884 15.8088 14.3053 15.8513C14.3222 15.8937 14.3294 15.9395 14.3264 15.9851C14.3138 16.4611 14.2636 16.9353 14.1761 17.4033C14.1599 17.4778 14.1186 17.5445 14.0592 17.5922C13.9997 17.64 13.9257 17.6659 13.8495 17.6657H6.14993C6.07298 17.6658 5.99834 17.6394 5.93868 17.5908C5.87902 17.5422 5.83801 17.4744 5.82262 17.399C5.73569 16.9316 5.68565 16.458 5.67296 15.9828C5.67017 15.9377 5.67742 15.8926 5.69419 15.8507C5.71097 15.8088 5.73685 15.7711 5.76996 15.7404Z" fill="white"/>
                           <path d="M8.66615 5.33298V7.66617C8.66615 7.75457 8.70127 7.83935 8.76378 7.90186C8.82629 7.96437 8.91107 7.99949 8.99947 7.99949C9.08787 7.99949 9.17265 7.96437 9.23515 7.90186C9.29766 7.83935 9.33278 7.75457 9.33278 7.66617V5.33298C9.42118 5.33298 9.50596 5.29786 9.56847 5.23535C9.63098 5.17284 9.66609 5.08807 9.66609 4.99966C9.66609 4.91126 9.63098 4.82649 9.56847 4.76398C9.50596 4.70147 9.42118 4.66635 9.33278 4.66635H8.66615C8.57775 4.66635 8.49297 4.70147 8.43046 4.76398C8.36796 4.82649 8.33284 4.91126 8.33284 4.99966C8.33284 5.08807 8.36796 5.17284 8.43046 5.23535C8.49297 5.29786 8.57775 5.33298 8.66615 5.33298Z" fill="white"/>
                           <path d="M10.666 5.33298V7.66617C10.666 7.75457 10.7011 7.83935 10.7636 7.90186C10.8262 7.96437 10.9109 7.99949 10.9993 7.99949C11.0877 7.99949 11.1725 7.96437 11.235 7.90186C11.2975 7.83935 11.3326 7.75457 11.3326 7.66617V5.33298C11.421 5.33298 11.5058 5.29786 11.5683 5.23535C11.6308 5.17284 11.666 5.08807 11.666 4.99966C11.666 4.91126 11.6308 4.82649 11.5683 4.76398C11.5058 4.70147 11.421 4.66635 11.3326 4.66635H10.666C10.5776 4.66635 10.4928 4.70147 10.4303 4.76398C10.3678 4.82649 10.3327 4.91126 10.3327 4.99966C10.3327 5.08807 10.3678 5.17284 10.4303 5.23535C10.4928 5.29786 10.5776 5.33298 10.666 5.33298Z" fill="white"/>
                         </svg>