  <svg xmlns="http://www.w3.org/2000/svg" width="20" height="20" viewBox="0 0 20 20" fill="none">
                           <path d="M8.72886 16.8052C7.7009 16.8052 6.65035 16.4993 5.61062 15.889C4.18512 15.0507 3.28888 13.9451 3.25138 13.8971C3.20926 13.8445 3.18168 13.7818 3.17142 13.7152C3.16116 13.6486 3.16857 13.5805 3.19291 13.5177C3.21725 13.4549 3.25766 13.3995 3.3101 13.3572C3.36255 13.315 3.42518 13.2872 3.49173 13.2767C4.46513 13.1219 8.4616 11.378 9.9193 10.7182L9.9342 10.712C12.4624 9.69485 14.8149 10.1933 14.9139 10.215C14.9564 10.224 14.9971 10.2403 15.0341 10.263L18.3831 12.342L18.392 12.3478C19.6057 13.1481 20.1989 14.0824 19.9403 14.7861C19.871 14.9672 19.7525 15.1253 19.5983 15.2427C19.5242 15.3016 19.4311 15.331 19.3367 15.3255C19.2423 15.32 19.1533 15.28 19.0866 15.2129C18.3196 14.4393 17.3076 13.9561 16.2238 13.8459C15.2478 13.8901 12.3542 15.5006 11.3147 16.1222C11.3102 16.1251 11.3056 16.1275 11.301 16.1301C10.4745 16.58 9.60997 16.8052 8.72886 16.8052ZM4.2654 13.8668C4.6401 14.2429 5.25082 14.7883 6.01992 15.2367C7.72061 16.2279 9.37203 16.3024 10.929 15.4581C11.0191 15.4045 11.9584 14.8479 13.0277 14.2955C14.5899 13.4882 15.6378 13.0895 16.2301 13.0763C16.2453 13.076 16.2606 13.0766 16.2757 13.0782C17.3475 13.1814 18.365 13.599 19.2003 14.2785C19.0947 13.9701 18.7196 13.4853 17.9745 12.9931L14.6882 10.9557C14.3193 10.8891 12.3134 10.5873 10.2279 11.4234C9.9604 11.5445 6.08939 13.2887 4.2654 13.8668Z" fill="white"/>
                           <path d="M18.2112 15.6921C17.6119 15.692 17.035 15.4642 16.5974 15.0549C16.1597 14.6455 15.8939 14.0851 15.8539 13.4872C15.8496 13.4363 15.8554 13.3851 15.871 13.3365C15.8867 13.288 15.9118 13.243 15.945 13.2042C15.9782 13.1655 16.0188 13.1337 16.0644 13.1108C16.11 13.0879 16.1597 13.0743 16.2106 13.0708C16.2615 13.0673 16.3126 13.074 16.3609 13.0904C16.4092 13.1068 16.4538 13.1327 16.492 13.1665C16.5302 13.2004 16.5613 13.2415 16.5834 13.2874C16.6056 13.3334 16.6184 13.3833 16.6211 13.4343C16.6399 13.7175 16.734 13.9906 16.8936 14.2253C17.0532 14.4601 17.2725 14.6479 17.529 14.7696C17.7855 14.8912 18.0698 14.9422 18.3525 14.9173C18.6353 14.8924 18.9063 14.7925 19.1375 14.6278C19.2208 14.5713 19.323 14.5496 19.422 14.5675C19.5211 14.5854 19.6092 14.6415 19.6674 14.7237C19.7256 14.8059 19.7493 14.9076 19.7333 15.007C19.7173 15.1064 19.6629 15.1956 19.5819 15.2554C19.1813 15.5394 18.7023 15.692 18.2112 15.6921Z" fill="white"/>
                           <path d="M2.01263 14.2096C1.45283 14.2076 0.893626 14.1727 0.337898 14.1053C0.28751 14.0992 0.23884 14.0831 0.194695 14.058C0.15055 14.033 0.111804 13.9994 0.0806919 13.9593C0.0495797 13.9192 0.0267169 13.8733 0.0134223 13.8243C0.000127731 13.7753 -0.00333554 13.7242 0.00323214 13.6739C0.00979981 13.6235 0.0262685 13.575 0.0516884 13.531C0.0771083 13.4871 0.110976 13.4486 0.151339 13.4178C0.191701 13.3871 0.23776 13.3646 0.286857 13.3517C0.335955 13.3388 0.387119 13.3357 0.437401 13.3427C0.456869 13.3453 2.41521 13.5946 3.44172 13.2898C3.53951 13.2608 3.64481 13.2718 3.73446 13.3205C3.82411 13.3691 3.89077 13.4514 3.91977 13.5492C3.94878 13.6469 3.93775 13.7522 3.88911 13.8419C3.84048 13.9315 3.75822 13.9982 3.66044 14.0272C3.18984 14.1664 2.58056 14.2096 2.01263 14.2096Z" fill="white"/>
                           <path d="M14.8269 10.9443C14.7249 10.9443 14.6271 10.9037 14.5549 10.8316C14.4828 10.7595 14.4423 10.6617 14.4423 10.5597C14.4423 10.4836 14.4649 10.4093 14.5071 10.3461C14.5494 10.2828 14.6094 10.2335 14.6797 10.2044C14.75 10.1753 14.8273 10.1677 14.9019 10.1825C14.9765 10.1974 15.045 10.234 15.0988 10.2878C15.1526 10.3416 15.1892 10.4101 15.204 10.4847C15.2189 10.5593 15.2113 10.6366 15.1821 10.7069C15.153 10.7771 15.1038 10.8372 15.0405 10.8794C14.9773 10.9217 14.9029 10.9443 14.8269 10.9443Z" fill="white"/>
                           <path d="M0.387636 14.1079C0.285646 14.1079 0.187833 14.0674 0.115715 13.9953C0.0435977 13.9232 0.00308228 13.8254 0.00308228 13.7234V10.8061C0.00175926 8.81054 0.784697 6.89443 2.18309 5.47084C3.58148 4.04725 5.48331 3.23023 7.47854 3.19592C9.47377 3.16161 11.4026 3.91277 12.8491 5.28744C14.2956 6.66211 15.1439 8.55018 15.2112 10.5446V10.5813C15.2125 10.6318 15.2038 10.6821 15.1856 10.7293C15.1675 10.7764 15.1402 10.8195 15.1054 10.8561C15.0706 10.8927 15.0289 10.9221 14.9827 10.9426C14.9365 10.9631 14.8868 10.9743 14.8363 10.9755H14.8264C14.7261 10.9755 14.6297 10.9363 14.5578 10.8663C14.486 10.7962 14.4444 10.7009 14.4419 10.6006V10.5799C14.4419 10.5768 14.4419 10.5734 14.4419 10.57C14.3166 6.86872 11.3157 3.96918 7.60883 3.96918C5.79564 3.96931 4.05675 4.68967 2.77465 5.97182C1.49255 7.25396 0.772253 8.99287 0.772189 10.8061V13.7234C0.772189 13.8254 0.731674 13.9232 0.659556 13.9953C0.587438 14.0674 0.489626 14.1079 0.387636 14.1079Z" fill="white"/>
                         </svg>