 <svg width="28" height="26" viewBox="0 0 28 26" fill="none" xmlns="http://www.w3.org/2000/svg">
    <path fill-rule="evenodd" clip-rule="evenodd" d="M27.9529 13.894C28.0017 13.762 28.0115 13.6174 27.9812 13.4794C27.9509 13.3413 27.8819 13.2161 27.7831 13.1202L14.4496 0.187144C14.3271 0.0668561 14.1661 0 13.9989 0C13.8316 0 13.6706 0.0668561 13.5481 0.187144L0.214925 13.1202C0.116329 13.2162 0.047413 13.3414 0.0171761 13.4794C-0.0130608 13.6174 -0.00321332 13.7618 0.0454326 13.8938C0.0940785 14.0258 0.179262 14.1393 0.28986 14.2193C0.400457 14.2994 0.531329 14.3423 0.665386 14.3426H4.93686V25.2935C4.93669 25.4806 5.00681 25.6601 5.13183 25.7926C5.25684 25.9251 5.42651 25.9997 5.60356 26H11.2003C11.3774 25.9997 11.5471 25.9251 11.6721 25.7926C11.7971 25.6601 11.8672 25.4806 11.8671 25.2935V18.1104C11.8671 17.0001 12.823 16.1002 13.9986 16.1002C15.1742 16.1002 16.1304 17.0001 16.1304 18.1104V25.2935C16.1302 25.4806 16.2003 25.6601 16.3252 25.7926C16.4502 25.9251 16.6199 25.9997 16.7969 26H22.3934C22.5705 25.9997 22.7403 25.9252 22.8653 25.7927C22.9904 25.6602 23.0605 25.4807 23.0603 25.2935V14.3426H27.3319C27.4662 14.343 27.5975 14.3003 27.7083 14.2202C27.8192 14.1401 27.9045 14.0264 27.9529 13.894Z" fill="white" />
</svg>