<svg xmlns="http://www.w3.org/2000/svg" width="20" height="20" viewBox="0 0 20 20" fill="none">
    <path d="M17.0711 2.92894C15.1823 1.04018 12.6711 1.52588e-05 10 1.52588e-05C7.32893 1.52588e-05 4.81768 1.04018 2.92893 2.92894C1.04017 4.8177 0 7.32894 0 10C0 12.6711 1.04017 15.1823 2.92893 17.0711C4.81768 18.9598 7.32893 20 10 20C12.6711 20 15.1823 18.9598 17.0711 17.071C18.9598 15.1823 20 12.6711 20 10C20 7.32894 18.9598 4.8177 17.0711 2.92894ZM10 18.9474C5.0664 18.9474 1.05263 14.9336 1.05263 10C1.05263 5.06642 5.0664 1.05265 10 1.05265C14.9336 1.05265 18.9474 5.06642 18.9474 10C18.9474 14.9336 14.9336 18.9474 10 18.9474ZM14.5341 7.87926L12.398 7.2193C12.352 7.20511 12.3283 7.18793 12.3006 7.14861L11.0129 5.3209C11.0128 5.32086 11.0128 5.32086 11.0128 5.32086C10.7776 4.987 10.4085 4.79551 10 4.79551C9.59154 4.79551 9.2224 4.98701 8.98712 5.3209L7.69937 7.14861C7.67171 7.18793 7.64804 7.20511 7.60198 7.2193L5.46577 7.8793C5.07549 7.99985 4.77933 8.29181 4.65314 8.68023C4.52695 9.06865 4.59499 9.47896 4.83987 9.80578L6.18021 11.5954C6.20905 11.6339 6.21802 11.6617 6.21735 11.7098L6.18488 13.9453C6.17891 14.3537 6.36501 14.7256 6.69554 14.9658C6.91204 15.123 7.16316 15.2039 7.41933 15.2039C7.55419 15.2039 7.6904 15.1815 7.82371 15.1361L9.93987 14.4143C9.98531 14.3989 10.0145 14.3988 10.0601 14.4143L12.1762 15.136C12.5627 15.2678 12.9739 15.2058 13.3045 14.9657C13.6349 14.7257 13.821 14.3538 13.8151 13.9454L13.7827 11.7098C13.7819 11.6617 13.7909 11.6339 13.8198 11.5953L15.1601 9.80583C15.405 9.47892 15.4731 9.06865 15.3468 8.6801C15.2205 8.29172 14.9243 7.99981 14.5341 7.87926ZM14.3176 9.17479L12.9773 10.9643C12.8092 11.1887 12.726 11.4446 12.7301 11.7251L12.7626 13.9606C12.7635 14.0284 12.7406 14.0743 12.6859 14.1141C12.631 14.1541 12.5802 14.1617 12.5161 14.1398L10.4 13.4181C10.1345 13.3275 9.86543 13.3276 9.60004 13.4181L7.48387 14.1398C7.41979 14.1617 7.36897 14.154 7.31427 14.1142C7.25937 14.0744 7.23642 14.0285 7.23743 13.9607L7.2699 11.7252C7.27398 11.4447 7.19078 11.1888 7.0227 10.9644L5.68236 9.17475C5.64177 9.12052 5.63335 9.06991 5.65432 9.00545C5.67524 8.94103 5.71179 8.90498 5.77651 8.88503L7.91263 8.22507C8.18059 8.14233 8.39836 7.9841 8.55987 7.75488L9.84758 5.92722C9.88665 5.87185 9.93221 5.84818 9.99996 5.84818C10.0677 5.84818 10.1133 5.87185 10.1523 5.92722L10.1523 5.92717L11.44 7.75488C11.6016 7.9841 11.8193 8.14229 12.0872 8.22507L14.2234 8.88503C14.2881 8.90503 14.3247 8.94107 14.3456 9.00541C14.3667 9.06991 14.3582 9.12052 14.3176 9.17479Z" fill="white"/>
</svg>