<svg width="26" height="25" viewBox="0 0 26 25" fill="none" xmlns="http://www.w3.org/2000/svg">
    <path d="M9.73661 3.97077H25.2383C25.659 3.97077 26 3.62972 26 3.20906C26 2.78839 25.659 2.44734 25.2383 2.44734H9.73661C9.31594 2.44734 8.9749 2.78839 8.9749 3.20906C8.9749 3.62972 9.31594 3.97077 9.73661 3.97077Z" fill="white" />
    <path d="M25.2383 11.4218H9.73661C9.31594 11.4218 8.9749 11.7629 8.9749 12.1836C8.9749 12.6042 9.31594 12.9453 9.73661 12.9453H25.2383C25.659 12.9453 26 12.6042 26 12.1836C26 11.7629 25.659 11.4218 25.2383 11.4218Z" fill="white" />
    <path d="M25.2383 20.3965H9.73661C9.31594 20.3965 8.9749 20.7376 8.9749 21.1583C8.9749 21.5789 9.31594 21.92 9.73661 21.92H25.2383C25.659 21.92 26 21.5789 26 21.1583C26 20.7376 25.659 20.3965 25.2383 20.3965Z" fill="white" />
    <path d="M5.47786 5.47786C6.731 4.22472 6.731 2.19299 5.47786 0.939852C4.22473 -0.313284 2.19299 -0.313284 0.939853 0.939853C-0.313284 2.19299 -0.313284 4.22473 0.939853 5.47786C2.19299 6.731 4.22473 6.731 5.47786 5.47786Z" fill="white" />
    <path d="M6.1776 13.4165C6.85646 11.7788 6.07911 9.90076 4.44135 9.2219C2.80359 8.54305 0.925594 9.3204 0.246738 10.9582C-0.432118 12.5959 0.345229 14.4739 1.98299 15.1528C3.62076 15.8316 5.49875 15.0543 6.1776 13.4165Z" fill="white" />
    <path d="M3.9524 24.2746C5.67701 23.867 6.74461 22.1384 6.33694 20.4138C5.92927 18.6892 4.20072 17.6216 2.4761 18.0292C0.751488 18.4369 -0.316107 20.1655 0.091561 21.8901C0.499229 23.6147 2.22779 24.6823 3.9524 24.2746Z" fill="white" />
</svg>