   <svg xmlns="http://www.w3.org/2000/svg" width="25" height="24" viewBox="0 0 25 24" fill="none">
                        <path fill-rule="evenodd" clip-rule="evenodd" d="M0.999634 4.92969C0.999634 4.10126 1.67121 3.42969 2.49963 3.42969H22.4996C23.3281 3.42969 23.9996 4.10126 23.9996 4.92969C23.9996 5.75811 23.3281 6.42969 22.4996 6.42969H2.49963C1.67121 6.42969 0.999634 5.75811 0.999634 4.92969ZM0.999702 11.9258C0.999702 11.0974 1.67128 10.4258 2.4997 10.4258H22.4997C23.3281 10.4258 23.9997 11.0974 23.9997 11.9258C23.9997 12.7542 23.3281 13.4258 22.4997 13.4258H2.4997C1.67128 13.4258 0.999702 12.7542 0.999702 11.9258ZM2.4997 17.4336C1.67128 17.4336 0.999702 18.1052 0.999702 18.9336C0.999702 19.762 1.67128 20.4336 2.4997 20.4336H22.4997C23.3281 20.4336 23.9997 19.762 23.9997 18.9336C23.9997 18.1052 23.3281 17.4336 22.4997 17.4336H2.4997Z" fill="white"/>
                      </svg>