<svg xmlns="http://www.w3.org/2000/svg" width="20" height="20" viewBox="0 0 20 20" fill="none">
    <path d="M18.9199 8.15595L17.869 4.15976C17.5565 2.95269 16.7284 1.95657 15.5995 1.4175L12.7048 0.0424617C12.6072 -0.000508191 12.5017 -0.00832089 12.4002 0.0229299C12.3845 0.0268363 12.3728 0.0307426 12.3494 0.0385553C12.2439 0.0776189 12.1423 0.112776 12.0408 0.144027C10.2282 0.733886 8.39223 0.702635 6.57187 0.034649C6.56406 0.0307426 6.53281 0.0190236 6.525 0.0190236C6.42343 -0.0122272 6.31796 -0.00441454 6.22421 0.0385553L3.3296 1.4175C2.20457 1.95657 1.37642 2.95269 1.06392 4.15976L0.0131073 8.15595C-0.0337689 8.33565 0.0482645 8.52706 0.208425 8.62081L3.48976 10.5115V17.6289C3.48976 18.3633 3.95852 19.0078 4.65385 19.2344C6.21249 19.7422 7.82972 20 9.46257 20C11.0954 20 12.7166 19.7422 14.2791 19.2344C14.9744 19.0117 15.4432 18.3633 15.4432 17.6328V10.5154L18.7245 8.62472C18.8886 8.53096 18.9706 8.33955 18.9199 8.15595ZM9.45476 1.40187H9.47039C10.5915 1.40187 11.3728 1.19093 12.0056 1.03468C11.7283 2.17924 10.6892 3.03473 9.46648 3.03473C8.23989 3.03473 7.2047 2.17924 6.92735 1.03468C7.77894 1.26515 8.53677 1.40187 9.45476 1.40187ZM15.4432 9.55052V7.70282C15.4432 7.47234 15.2557 7.28484 15.0252 7.28484C14.7947 7.28484 14.6072 7.47234 14.6072 7.70282V17.6289C14.6072 18 14.369 18.3281 14.0174 18.4453C11.0642 19.4062 7.85706 19.4062 4.90777 18.4453C4.55619 18.332 4.31791 18.0039 4.31791 17.6289V7.70672C4.31791 7.47625 4.1304 7.28874 3.89993 7.28874C3.66945 7.28874 3.48195 7.47625 3.48195 7.70672V9.55443L0.892037 8.0622L1.86081 4.3707C2.11863 3.40192 2.78662 2.60112 3.68898 2.17142L6.07967 1.03468C6.37265 2.64019 7.77894 3.86678 9.46648 3.86678C11.1501 3.86678 12.5603 2.64019 12.8533 1.03468L15.244 2.17142C16.1502 2.60112 16.8143 3.40192 17.0682 4.3707L18.037 8.0622L15.4432 9.55052Z" fill="white"/>
</svg>