  <svg xmlns="http://www.w3.org/2000/svg" width="25" height="24" viewBox="0 0 25 24" fill="none">
                        <g clip-path="url(#clip0_102_887)">
                          <path d="M22.9988 4.077C22.7175 3.73944 22.3653 3.46795 21.9673 3.28182C21.5693 3.09568 21.1352 2.99946 20.6958 3H4.52777L4.48577 2.649C4.39982 1.91942 4.04915 1.24673 3.50026 0.758478C2.95136 0.270223 2.24239 0.000341793 1.50777 0L1.28577 0C1.02055 0 0.766196 0.105357 0.57866 0.292893C0.391123 0.48043 0.285767 0.734784 0.285767 1C0.285767 1.26522 0.391123 1.51957 0.57866 1.70711C0.766196 1.89464 1.02055 2 1.28577 2H1.50777C1.7527 2.00003 1.9891 2.08996 2.17214 2.25272C2.35517 2.41547 2.47211 2.63975 2.50077 2.883L3.87677 14.583C4.01962 15.7998 4.60424 16.9218 5.51967 17.736C6.43511 18.5502 7.61762 19 8.84277 19H19.2858C19.551 19 19.8053 18.8946 19.9929 18.7071C20.1804 18.5196 20.2858 18.2652 20.2858 18C20.2858 17.7348 20.1804 17.4804 19.9929 17.2929C19.8053 17.1054 19.551 17 19.2858 17H8.84277C8.22382 16.9983 7.62057 16.8051 7.1157 16.4471C6.61084 16.089 6.22908 15.5836 6.02277 15H17.9428C19.1151 15.0001 20.2501 14.5882 21.1496 13.8364C22.0491 13.0846 22.6558 12.0407 22.8638 10.887L23.6488 6.533C23.7271 6.10101 23.7095 5.65707 23.5972 5.23264C23.4849 4.80821 23.2806 4.41368 22.9988 4.077ZM21.6858 6.178L20.8998 10.532C20.7749 11.225 20.4102 11.852 19.8696 12.3032C19.329 12.7544 18.6469 13.0011 17.9428 13H5.70477L4.76377 5H20.6958C20.8427 4.99912 20.988 5.03062 21.1213 5.09226C21.2546 5.15389 21.3728 5.24415 21.4673 5.35661C21.5618 5.46907 21.6304 5.60097 21.6681 5.74294C21.7059 5.8849 21.7119 6.03345 21.6858 6.178Z" fill="white"/>
                          <path d="M7.2854 24C8.38996 24 9.28539 23.1046 9.28539 22C9.28539 20.8954 8.38996 20 7.2854 20C6.18083 20 5.2854 20.8954 5.2854 22C5.2854 23.1046 6.18083 24 7.2854 24Z" fill="white"/>
                          <path d="M17.2859 24C18.3905 24 19.2859 23.1046 19.2859 22C19.2859 20.8954 18.3905 20 17.2859 20C16.1813 20 15.2859 20.8954 15.2859 22C15.2859 23.1046 16.1813 24 17.2859 24Z" fill="white"/>
                        </g>
                        <defs>
                          <clipPath id="clip0_102_887">
                            <rect width="24" height="24" fill="white" transform="translate(0.285767)"/>
                          </clipPath>
                        </defs>
                      </svg>