        <svg xmlns="http://www.w3.org/2000/svg" width="20" height="20" viewBox="0 0 20 20" fill="none">
                           <path d="M15.1655 15.6789C15.219 15.4343 15.4116 15.2417 15.6562 15.1882L16.6583 14.969C17.0155 14.8909 17.3252 14.6645 17.508 14.3478C17.6908 14.0312 17.7321 13.6498 17.6211 13.3014L17.5303 13.0165H18.1584C19.1489 13.0165 19.9547 12.2107 19.9547 11.2202V8.77987C19.9547 7.78942 19.1489 6.98367 18.1584 6.98358L17.5304 6.98358L17.6211 6.69866C17.732 6.35028 17.6908 5.96887 17.508 5.65225C17.3252 5.33562 17.0155 5.10919 16.6583 5.03101L15.6562 4.81184C15.4116 4.75836 15.219 4.56574 15.1656 4.32121L14.9464 3.3191C14.8682 2.96195 14.6419 2.65219 14.3251 2.46941C14.0085 2.2866 13.6271 2.24536 13.2787 2.35636L12.3013 2.66761C12.0627 2.74355 11.7995 2.67272 11.631 2.48804L10.9402 1.72966C10.694 1.45948 10.343 1.30443 9.97736 1.30438C9.61172 1.30441 9.26082 1.45939 9.01455 1.72968L8.32364 2.488C8.15506 2.67304 7.892 2.7435 7.65342 2.66759L6.67596 2.35629C6.32758 2.24534 5.94618 2.28655 5.62956 2.46934C5.3129 2.65217 5.08648 2.96186 5.00832 3.31906L4.78915 4.32124C4.73565 4.56581 4.54309 4.75836 4.2985 4.81184L3.29636 5.03106C2.93919 5.10919 2.62948 5.33559 2.44667 5.65228C2.26388 5.96889 2.22265 6.35032 2.33364 6.69866L2.42439 6.9836H1.7963C0.805846 6.9836 2.32623e-05 7.78942 4.17044e-09 8.77989L0 11.2202C2.33368e-05 11.7154 0.201444 12.1645 0.526711 12.4898C0.851979 12.815 1.30107 13.0165 1.7963 13.0165H2.42435L2.33362 13.3014C2.22267 13.6498 2.26388 14.0312 2.44669 14.3479C2.50395 14.447 2.57355 14.5373 2.6532 14.6169C2.82803 14.7917 3.05102 14.9154 3.29639 14.9691L4.29852 15.1882C4.54314 15.2417 4.73574 15.4343 4.78915 15.6789L5.00837 16.6811C5.08648 17.0383 5.31288 17.348 5.62958 17.5308C5.9462 17.7135 6.32763 17.7548 6.67594 17.6438L7.65349 17.3326C7.892 17.2566 8.15551 17.3273 8.32367 17.5121L9.01458 18.2704C9.26089 18.5409 9.61175 18.6957 9.97736 18.6957C10.343 18.6957 10.6939 18.5407 10.9402 18.2704L11.6311 17.5121C11.7996 17.327 12.0627 17.2566 12.3013 17.3325L13.2787 17.6438C13.6271 17.7548 14.0085 17.7135 14.3251 17.5308C14.6418 17.3479 14.8682 17.0382 14.9464 16.6811L15.1655 15.6789ZM2.96218 6.49847C2.90663 6.32401 2.92641 6.14065 3.01797 5.98209C3.10949 5.82349 3.25848 5.71462 3.43735 5.67551L4.43946 5.45631C4.93506 5.34798 5.32528 4.95775 5.43364 4.46218L5.65281 3.46004C5.69195 3.28115 5.80082 3.13221 5.95938 3.04069C6.11795 2.94915 6.30132 2.92932 6.4758 2.98485L7.45331 3.29615C7.93662 3.45004 8.46967 3.30718 8.81131 2.93228L9.5022 2.17395C9.62548 2.03863 9.79425 1.96408 9.97736 1.96411C10.1605 1.96411 10.3295 2.03863 10.4525 2.17395L11.1434 2.93226C11.4851 3.30809 12.0181 3.45002 12.5015 3.29611L13.479 2.98485C13.6534 2.9293 13.8368 2.9491 13.9954 3.04067C14.1539 3.13214 14.2628 3.28109 14.3019 3.46002L14.5212 4.4622C14.6295 4.95769 15.0198 5.34796 15.5153 5.45632L16.5174 5.67551C16.6963 5.71462 16.8452 5.8234 16.9368 5.98209C17.0283 6.14065 17.0481 6.32401 16.9926 6.4985L16.8381 6.9836L15.4971 6.9836C14.6589 5.45207 13.2221 4.33414 11.5309 3.90443C11.3544 3.85955 11.1749 3.9663 11.13 4.14286C11.1003 4.25983 11.1371 4.37805 11.2166 4.45761C11.2572 4.49814 11.3088 4.52863 11.3684 4.54379C12.7628 4.89816 13.9637 5.77566 14.7309 6.98362L5.22387 6.98362C5.9904 5.77671 7.18931 4.8998 8.5827 4.54472C8.75918 4.49973 8.86584 4.32016 8.82085 4.14363C8.77584 3.96716 8.59629 3.86048 8.41976 3.90547C6.72961 4.33616 5.29524 5.45333 4.45777 6.9836H3.11663L2.96218 6.49847ZM1.79627 12.3568C1.16955 12.3568 0.659655 11.847 0.659702 11.2202L0.659678 8.77989C0.659678 8.15315 1.16953 7.6433 1.79625 7.64332L18.1584 7.6433C18.4718 7.6433 18.7559 7.77076 18.9617 7.97657C19.1675 8.18235 19.295 8.4665 19.295 8.77987V11.2202C19.295 11.8469 18.7851 12.3568 18.1584 12.3568L1.79627 12.3568ZM12.9577 14.7767C12.0656 15.3346 11.035 15.6295 9.97734 15.6295C8.91981 15.6295 7.88939 15.3347 6.99736 14.777C6.28005 14.3285 5.67493 13.7258 5.22404 13.0165L14.7307 13.0165C14.2799 13.7257 13.6749 14.3282 12.9577 14.7767ZM13.9953 16.9594C13.8367 17.051 13.6534 17.0708 13.4789 17.0153L12.5014 16.704C12.0181 16.5501 11.485 16.6929 11.1434 17.0678L10.4525 17.8261C10.3292 17.9615 10.1604 18.036 9.97727 18.036C9.79418 18.036 9.62506 17.9613 9.50213 17.8261L8.81122 17.0678C8.46932 16.6932 7.93652 16.55 7.45324 16.704L6.47569 17.0152C6.30123 17.0708 6.11786 17.051 5.95928 16.9594C5.80071 16.8679 5.69183 16.7189 5.65272 16.5401L5.43362 15.5379C5.32526 15.0424 4.93499 14.6522 4.43951 14.5438L3.43731 14.3246C3.25846 14.2855 3.1095 14.1766 3.01797 14.018C2.92645 13.8595 2.90661 13.6761 2.96216 13.5016L3.11661 13.0165H4.45794C4.74638 13.5433 5.10761 14.0247 5.52981 14.4469C5.86601 14.7831 6.24077 15.0819 6.6476 15.3363C7.64458 15.9596 8.79599 16.2891 9.97732 16.2892C11.1588 16.2892 12.3104 15.9596 13.3075 15.3361C14.225 14.7623 14.9785 13.9627 15.4965 13.0165H16.838L16.9925 13.5017C17.048 13.6761 17.0283 13.8595 16.9367 14.018C16.8452 14.1766 16.6962 14.2855 16.5173 14.3246L15.5152 14.5438C15.0196 14.6522 14.6294 15.0424 14.521 15.538L14.3018 16.5401C14.2628 16.7189 14.1539 16.8679 13.9953 16.9594Z" fill="white"/>
                           <path d="M8.56264 10.9873C8.45302 10.9882 8.33752 10.9889 8.23539 10.9893L8.23541 8.68069C8.23534 8.49861 8.08775 8.35093 7.90555 8.35083C7.72339 8.35083 7.57571 8.49852 7.57569 8.6807L7.57566 11.3172C7.57566 11.4072 7.61205 11.4902 7.67234 11.5505C7.71399 11.5922 7.76708 11.6229 7.82739 11.6376C7.87639 11.6496 7.88799 11.6524 8.56781 11.647C8.74999 11.6455 8.89649 11.4967 8.89504 11.3146C8.89364 11.1324 8.74475 10.9859 8.56264 10.9873Z" fill="white"/>
                           <path d="M2.3464 10.9896H1.89159L1.89162 10.3299L2.28858 10.3299C2.47074 10.3299 2.61842 10.1822 2.61844 10.0001C2.6184 9.8179 2.47076 9.67026 2.28858 9.67019L1.89162 9.67019V9.01051H2.34642C2.52858 9.01051 2.67626 8.86283 2.67629 8.68065C2.67624 8.49849 2.5286 8.35086 2.34642 8.35079L1.56178 8.35079C1.37962 8.35079 1.23194 8.49847 1.23192 8.68065V11.3194C1.23194 11.4104 1.26884 11.4929 1.32852 11.5526C1.38821 11.6123 1.47068 11.6492 1.56176 11.6492H2.3464C2.52856 11.6492 2.67624 11.5015 2.67626 11.3193C2.67622 11.1372 2.52858 10.9896 2.3464 10.9896Z" fill="white"/>
                           <path d="M18.3929 10.9896H17.9381V10.3299H18.3351C18.5172 10.3299 18.6649 10.1822 18.6649 10C18.6649 9.81787 18.5173 9.67024 18.3351 9.67017H17.9381V9.01049H18.3929C18.5751 9.01049 18.7228 8.8628 18.7228 8.68063C18.7227 8.49847 18.5751 8.35083 18.3929 8.35076H17.6083C17.4261 8.35076 17.2784 8.49845 17.2784 8.68063V11.3193C17.2784 11.4104 17.3153 11.4929 17.375 11.5526C17.4347 11.6123 17.5172 11.6492 17.6083 11.6492H18.3929C18.5751 11.6492 18.7227 11.5015 18.7228 11.3193C18.7227 11.1372 18.5751 10.9896 18.3929 10.9896Z" fill="white"/>
                           <path d="M7.10759 10.4804C6.93306 10.4283 6.74929 10.5275 6.69714 10.702C6.64655 10.8713 6.48763 10.9895 6.31058 10.9896C6.20285 10.9895 6.10158 10.9476 6.0254 10.8714C5.94923 10.7953 5.9073 10.694 5.9073 10.5862L5.90727 9.41375C5.9073 9.30602 5.94923 9.20475 6.02541 9.12857C6.10158 9.0524 6.20285 9.01046 6.3106 9.01046C6.48805 9.01046 6.64711 9.12899 6.69738 9.29886C6.74908 9.47343 6.93259 9.57316 7.10733 9.52143C7.28202 9.4697 7.38164 9.28617 7.32991 9.11148C7.19729 8.66362 6.7781 8.35074 6.31063 8.35076C6.02669 8.35076 5.75973 8.46136 5.55898 8.66211C5.35822 8.86287 5.24766 9.12983 5.24764 9.41375V10.5862C5.24764 10.8702 5.35824 11.1371 5.55898 11.3379C5.75975 11.5386 6.02671 11.6492 6.31063 11.6492C6.77698 11.6492 7.19584 11.3373 7.32923 10.8908C7.3814 10.7164 7.28219 10.5326 7.10759 10.4804Z" fill="white"/>
                           <path d="M5.23204 11.1592L4.53579 9.90645L5.12874 8.84111C5.21734 8.68193 5.15999 8.481 5.00097 8.39251C4.84179 8.30391 4.64093 8.36109 4.55237 8.52028L4.15858 9.22777L3.76546 8.52044C3.677 8.3614 3.47614 8.30393 3.31691 8.39239C3.15768 8.48091 3.10037 8.68174 3.18886 8.84095L3.78095 9.90627L3.08368 11.159C3.01035 11.2907 3.03689 11.4511 3.13844 11.5526C3.15959 11.5738 3.18401 11.5924 3.21144 11.6076C3.37062 11.6962 3.57148 11.639 3.66004 11.4798L4.15814 10.585L4.65541 11.4797C4.67069 11.5072 4.68933 11.5316 4.71053 11.5529C4.81205 11.6544 4.97222 11.6809 5.10397 11.6077C5.2632 11.5192 5.32053 11.3184 5.23204 11.1592Z" fill="white"/>
                           <path d="M11.1377 8.68067C11.1377 8.49852 10.9901 8.35088 10.8079 8.35081C10.6257 8.35081 10.478 8.49849 10.478 8.68067V10.6612C10.478 10.748 10.4524 10.8496 10.2626 10.9453C10.2032 10.9752 10.1381 10.9897 10.0637 10.9896C9.98373 10.9895 9.91476 10.9702 9.85261 10.9305C9.70366 10.8354 9.67456 10.7603 9.67453 10.6627V8.68072C9.67449 8.49856 9.52685 8.35093 9.34467 8.35086C9.16251 8.35086 9.01483 8.49854 9.01481 8.68072V10.6627C9.01481 10.9187 9.10579 11.1384 9.28587 11.3185C9.34635 11.3789 9.41688 11.4349 9.49737 11.4863C9.66609 11.5942 9.85629 11.649 10.0627 11.6493C10.2405 11.6495 10.4076 11.6109 10.5594 11.5344C10.9323 11.3466 11.1377 11.0365 11.1377 10.6612L11.1377 8.68067Z" fill="white"/>
                           <path d="M12.9829 9.7114C12.6588 9.59182 12.3571 9.46163 12.2644 9.42109C12.1931 9.36388 12.195 9.28293 12.1998 9.24939C12.2066 9.20283 12.2404 9.08902 12.4098 9.03799C12.7812 8.92608 13.1255 9.19754 13.1359 9.20584C13.2753 9.3215 13.4822 9.30308 13.5989 9.16419C13.7161 9.02474 13.6985 8.81707 13.5587 8.69945C13.5338 8.67852 12.9404 8.18915 12.2194 8.40634C11.8552 8.51608 11.5975 8.80321 11.5469 9.15568C11.4994 9.48638 11.6426 9.80451 11.921 9.98589C11.9356 9.99543 12.3454 10.1794 12.7546 10.3303C12.8703 10.373 13.1357 10.4934 13.1006 10.6896C13.0743 10.8371 12.8947 10.9896 12.6397 10.9896C12.3774 10.9896 12.1252 10.8849 11.9646 10.7068C11.8416 10.5723 11.6336 10.5616 11.4987 10.6839C11.3637 10.8062 11.3534 11.0148 11.4758 11.1498C11.4909 11.1664 11.5063 11.1827 11.5223 11.1986C11.8055 11.4819 12.218 11.6493 12.6397 11.6493C13.1958 11.6493 13.6627 11.2944 13.7501 10.8055C13.8157 10.4376 13.6487 9.95702 12.9829 9.7114Z" fill="white"/>
                           <path d="M14.6817 8.68069C14.6816 8.49854 14.534 8.3509 14.3518 8.35083C14.1696 8.35083 14.022 8.49852 14.0219 8.68069L14.0219 11.3194C14.022 11.4105 14.0589 11.493 14.1185 11.5526C14.1782 11.6123 14.2607 11.6492 14.3518 11.6492C14.5339 11.6492 14.6816 11.5016 14.6816 11.3194L14.6817 8.68069Z" fill="white"/>
                           <path d="M17.0938 8.77348C17.1424 8.59787 17.0394 8.41618 16.8639 8.36762C16.6883 8.31904 16.5066 8.42202 16.458 8.59757L16.0057 10.2329L15.5306 8.58908C15.48 8.41413 15.2971 8.31319 15.1222 8.36378C14.9471 8.41434 14.8463 8.59722 14.8968 8.77222L15.6485 11.3732C15.6678 11.4383 15.702 11.495 15.7467 11.5397C15.8161 11.6091 15.9108 11.6499 16.0137 11.6492C16.1832 11.6483 16.3287 11.5355 16.3764 11.367L17.0938 8.77348Z" fill="white"/>
                           <path d="M9.74395 4.27033C9.87276 4.39914 10.0816 4.39914 10.2104 4.27033C10.3392 4.14152 10.3392 3.93269 10.2104 3.80388C10.0816 3.67508 9.87276 3.67508 9.74395 3.80388C9.61515 3.93269 9.61515 4.14152 9.74395 4.27033Z" fill="white"/>
                         </svg>