         <svg xmlns="http://www.w3.org/2000/svg" width="25" height="24" viewBox="0 0 25 24" fill="none">
                        <g clip-path="url(#clip0_102_891)">
                          <path d="M17.9269 1.91797C16.8013 1.93548 15.7002 2.24969 14.7349 2.82887C13.7696 3.40806 12.9742 4.2317 12.4291 5.21664C11.8839 4.2317 11.0886 3.40806 10.1232 2.82887C9.15794 2.24969 8.05689 1.93548 6.9313 1.91797C5.13696 1.99593 3.44641 2.78087 2.22897 4.10132C1.01154 5.42177 0.366193 7.17038 0.433916 8.96513C0.433916 13.5103 5.21799 18.4743 9.23037 21.8399C10.1262 22.5928 11.2589 23.0055 12.4291 23.0055C13.5993 23.0055 14.7319 22.5928 15.6278 21.8399C19.6402 18.4743 24.4242 13.5103 24.4242 8.96513C24.492 7.17038 23.8466 5.42177 22.6292 4.10132C21.4117 2.78087 19.7212 1.99593 17.9269 1.91797ZM14.3433 20.3105C13.8075 20.7617 13.1295 21.0092 12.4291 21.0092C11.7286 21.0092 11.0507 20.7617 10.5148 20.3105C5.37892 16.0013 2.43311 11.867 2.43311 8.96513C2.36478 7.70035 2.79933 6.45987 3.64199 5.51422C4.48464 4.56857 5.66704 3.99448 6.9313 3.91716C8.19555 3.99448 9.37795 4.56857 10.2206 5.51422C11.0633 6.45987 11.4978 7.70035 11.4295 8.96513C11.4295 9.23024 11.5348 9.48449 11.7223 9.67195C11.9097 9.85941 12.164 9.96472 12.4291 9.96472C12.6942 9.96472 12.9484 9.85941 13.1359 9.67195C13.3234 9.48449 13.4287 9.23024 13.4287 8.96513C13.3603 7.70035 13.7949 6.45987 14.6375 5.51422C15.4802 4.56857 16.6626 3.99448 17.9269 3.91716C19.1911 3.99448 20.3735 4.56857 21.2162 5.51422C22.0588 6.45987 22.4934 7.70035 22.425 8.96513C22.425 11.867 19.4792 16.0013 14.3433 20.3066V20.3105Z" fill="white"/>
                        </g>
                        <defs>
                          <clipPath id="clip0_102_891">
                            <rect width="24" height="24" fill="white" transform="translate(0.428467)"/>
                          </clipPath>
                        </defs>
                      </svg>