<svg xmlns="http://www.w3.org/2000/svg" width="20" height="20" viewBox="0 0 20 20" fill="none">
    <path d="M10.2108 8.13516C10.4394 8.36404 10.8105 8.36404 11.0393 8.13516C11.2682 7.90643 11.2682 7.53564 11.0393 7.30691L10.2108 6.47851C9.98199 6.24963 9.61095 6.24978 9.38216 6.47851C9.15337 6.70724 9.15337 7.07803 9.38216 7.30691L10.2108 8.13516Z" fill="white"/>
    <path d="M12.6965 10.6204C12.9253 10.8491 13.2962 10.8491 13.5251 10.6204C13.7539 10.3916 13.7539 10.0207 13.5251 9.79195L12.6965 8.96356C12.4677 8.73483 12.0967 8.73483 11.8679 8.96356C11.6391 9.19244 11.6391 9.56322 11.8679 9.79195L12.6965 10.6204Z" fill="white"/>
    <path d="M6.45711 19.4853C6.78908 19.8172 7.23048 20 7.69996 20H8.38649C8.85598 20 9.29738 19.8172 9.62934 19.4853L18.1534 10.9636C18.4823 10.6348 18.6708 10.1819 18.6708 9.72093V5.72129C18.6708 5.6424 18.6648 5.56382 18.6541 5.486C19.3129 4.77479 19.7631 3.93815 19.9292 3.10837C20.1253 2.12784 19.9109 1.26542 19.3252 0.679936C18.0584 -0.586392 15.8929 0.0776712 14.5179 1.35087C14.44 1.34003 14.3614 1.33423 14.2825 1.33423H10.2817C9.82074 1.33423 9.36774 1.52268 9.03882 1.85151L0.514817 10.3732C0.182849 10.7051 0 11.1464 0 11.6158V12.302C0 12.7713 0.182849 13.2126 0.514817 13.5446L6.45711 19.4853ZM18.4966 1.50834C18.9009 1.91254 18.8477 2.54044 18.78 2.87858C18.6784 3.38669 18.4266 3.90626 18.0566 4.38187L15.6226 1.9487C16.6739 1.13541 17.9078 0.919652 18.4966 1.50834ZM13.525 5.65018C13.7535 5.42176 14.1252 5.42176 14.3537 5.65018C14.5826 5.87922 14.5826 6.24955 14.3537 6.47858C14.1252 6.70701 13.7535 6.70701 13.525 6.47858C13.2966 6.25016 13.2966 5.87861 13.525 5.65018ZM1.17173 11.6158C1.17173 11.4594 1.23278 11.3123 1.34344 11.2016L7.31061 5.23606L7.72484 5.65018C7.95363 5.87891 8.32467 5.87891 8.55346 5.65018C8.78226 5.42145 8.78226 5.05051 8.55346 4.82178L8.13923 4.40766L9.86744 2.67991C9.9781 2.56913 10.1292 2.50535 10.2817 2.50535H13.5572C13.1143 3.21183 12.8639 3.97568 12.8524 4.68384C12.7985 4.72642 12.7462 4.77204 12.6964 4.82194C12.0111 5.50706 12.0111 6.62186 12.6964 7.30698C13.3817 7.9921 14.4968 7.9921 15.1821 7.30698C15.8691 6.62034 15.8693 5.50858 15.1821 4.82178C14.8712 4.51081 14.4716 4.34159 14.0638 4.3129C14.1586 3.80967 14.415 3.26874 14.7945 2.77756L17.3249 5.30717C17.4355 5.41779 17.499 5.5687 17.499 5.72129V9.72108C17.499 9.87351 17.4355 10.0246 17.3249 10.1352L15.5965 11.8631L15.1821 11.4488C14.9535 11.2201 14.5825 11.2201 14.3537 11.4488C14.1249 11.6776 14.1249 12.0485 14.3537 12.2772L14.7679 12.6914L8.80072 18.6569C8.69007 18.7676 8.54293 18.8284 8.38649 18.8284H7.69996C7.54352 18.8284 7.39639 18.7676 7.28573 18.6569L1.34344 12.7162C1.23278 12.6056 1.17173 12.4585 1.17173 12.302V11.6158Z" fill="white"/>
    <path d="M8.45769 10.7162C9.14299 10.0311 9.14299 8.91625 8.45769 8.23113C7.77224 7.54601 6.65713 7.54601 5.97183 8.23113C5.28652 8.91625 5.28652 10.0311 5.97183 10.7162C6.65713 11.4015 7.77224 11.4015 8.45769 10.7162ZM6.80045 9.05953C7.02878 8.83111 7.40058 8.83111 7.62907 9.05953C7.85801 9.28841 7.85801 9.65905 7.62907 9.88793C7.40058 10.1164 7.02893 10.1162 6.80045 9.88793C6.57196 9.65951 6.57196 9.28796 6.80045 9.05953Z" fill="white"/>
    <path d="M6.80045 14.0298C6.11515 14.7149 6.11515 15.8297 6.80045 16.5148C7.48575 17.1999 8.60086 17.1999 9.28616 16.5148C9.97162 15.8297 9.97162 14.7149 9.28616 14.0298C8.60086 13.3447 7.48575 13.3447 6.80045 14.0298ZM8.45769 15.6864C8.22921 15.9149 7.85756 15.9149 7.62907 15.6864C7.40059 15.4582 7.40059 15.0865 7.62907 14.8582C7.8574 14.6298 8.22905 14.6296 8.45769 14.8582C8.68602 15.0865 8.68602 15.4582 8.45769 15.6864Z" fill="white"/>
    <path d="M3.96507 13.3694L11.4224 12.541C11.7439 12.5053 11.9758 12.2157 11.9401 11.8942C11.9042 11.5727 11.615 11.3409 11.2931 11.3766L3.83564 12.205C3.51405 12.2407 3.28236 12.5303 3.31807 12.852C3.35379 13.1738 3.64378 13.4051 3.96507 13.3694Z" fill="white"/>
</svg>