 <svg width="26" height="25" viewBox="0 0 26 25" fill="none" xmlns="http://www.w3.org/2000/svg">
    <path d="M9.73645 3.97105H25.2383C25.659 3.97105 26 3.63 26 3.20933C26 2.78866 25.659 2.44761 25.2383 2.44761H9.73645C9.31578 2.44761 8.97474 2.78866 8.97474 3.20933C8.97474 3.63 9.31578 3.97105 9.73645 3.97105Z" fill="white" fill-opacity="0.8" />
    <path d="M25.2383 11.4224H9.73645C9.31578 11.4224 8.97474 11.7634 8.97474 12.1841C8.97474 12.6048 9.31578 12.9458 9.73645 12.9458H25.2383C25.659 12.9458 26 12.6048 26 12.1841C26 11.7634 25.659 11.4224 25.2383 11.4224Z" fill="white" fill-opacity="0.8" />
    <path d="M25.2383 20.3972H9.73645C9.31578 20.3972 8.97474 20.7382 8.97474 21.1589C8.97474 21.5796 9.31578 21.9206 9.73645 21.9206H25.2383C25.659 21.9206 26 21.5796 26 21.1589C26 20.7382 25.659 20.3972 25.2383 20.3972Z" fill="white" fill-opacity="0.8" />
    <path d="M3.20937 0C1.4397 0 0 1.4397 0 3.20937C0 4.97905 1.43975 6.41874 3.20937 6.41874C4.979 6.41874 6.41875 4.979 6.41875 3.20937C6.41875 1.43975 4.97905 0 3.20937 0ZM3.20937 4.89531C2.27972 4.89531 1.52344 4.13897 1.52344 3.20937C1.52344 2.27977 2.27977 1.52344 3.20937 1.52344C4.13897 1.52344 4.89531 2.27972 4.89531 3.20937C4.89531 4.13902 4.13902 4.89531 3.20937 4.89531Z" fill="white" fill-opacity="0.8" />
    <path d="M3.20937 8.97479C1.43975 8.97479 0 10.4145 0 12.1842C0 13.9538 1.43975 15.3935 3.20937 15.3935C4.979 15.3935 6.41875 13.9538 6.41875 12.1842C6.41875 10.4145 4.97905 8.97479 3.20937 8.97479ZM3.20937 13.8701C2.27977 13.8701 1.52344 13.1138 1.52344 12.1842C1.52344 11.2545 2.27977 10.4982 3.20937 10.4982C4.13897 10.4982 4.89531 11.2546 4.89531 12.1842C4.89531 13.1138 4.13902 13.8701 3.20937 13.8701Z" fill="white" fill-opacity="0.8" />
    <path d="M3.20937 17.9494C1.4397 17.9494 0 19.3891 0 21.1587C0 22.9284 1.43975 24.3681 3.20937 24.3681C4.979 24.3681 6.41875 22.9284 6.41875 21.1587C6.41875 19.3891 4.97905 17.9494 3.20937 17.9494ZM3.20937 22.8447C2.27972 22.8447 1.52344 22.0884 1.52344 21.1587C1.52344 20.2291 2.27977 19.4728 3.20937 19.4728C4.13897 19.4728 4.89531 20.2291 4.89531 21.1587C4.89531 22.0883 4.13902 22.8447 3.20937 22.8447Z" fill="white" fill-opacity="0.8" />
</svg>