 <svg width="26" height="26" viewBox="0 0 26 26" fill="none" xmlns="http://www.w3.org/2000/svg">
    <path d="M9.75 0H2.4375C1.09338 0 0 1.09338 0 2.4375V9.75C0 11.0941 1.09338 12.1875 2.4375 12.1875H9.75C11.0941 12.1875 12.1875 11.0941 12.1875 9.75V2.4375C12.1875 1.09338 11.0941 0 9.75 0ZM10.5625 9.75C10.5625 10.1979 10.1983 10.5625 9.75 10.5625H2.4375C1.98919 10.5625 1.625 10.1979 1.625 9.75V2.4375C1.625 1.98959 1.98919 1.625 2.4375 1.625H9.75C10.1983 1.625 10.5625 1.98959 10.5625 2.4375V9.75Z" fill="white" fill-opacity="0.8" />
    <path d="M23.5625 0H16.25C14.9059 0 13.8125 1.09338 13.8125 2.4375V9.75C13.8125 11.0941 14.9059 12.1875 16.25 12.1875H23.5625C24.9066 12.1875 26 11.0941 26 9.75V2.4375C26 1.09338 24.9066 0 23.5625 0ZM24.375 9.75C24.375 10.1979 24.0108 10.5625 23.5625 10.5625H16.25C15.8017 10.5625 15.4375 10.1979 15.4375 9.75V2.4375C15.4375 1.98959 15.8017 1.625 16.25 1.625H23.5625C24.0108 1.625 24.375 1.98959 24.375 2.4375V9.75Z" fill="white" fill-opacity="0.8" />
    <path d="M23.5625 13.8125H16.25C14.9059 13.8125 13.8125 14.9059 13.8125 16.25V23.5625C13.8125 24.9066 14.9059 26 16.25 26H23.5625C24.9066 26 26 24.9066 26 23.5625V16.25C26 14.9059 24.9066 13.8125 23.5625 13.8125ZM24.375 23.5625C24.375 24.0104 24.0108 24.375 23.5625 24.375H16.25C15.8017 24.375 15.4375 24.0104 15.4375 23.5625V16.25C15.4375 15.8021 15.8017 15.4375 16.25 15.4375H23.5625C24.0108 15.4375 24.375 15.8021 24.375 16.25V23.5625Z" fill="white" fill-opacity="0.8" />
    <path d="M9.75 13.8125H2.4375C1.09338 13.8125 0 14.9059 0 16.25V23.5625C0 24.9066 1.09338 26 2.4375 26H9.75C11.0941 26 12.1875 24.9066 12.1875 23.5625V16.25C12.1875 14.9059 11.0941 13.8125 9.75 13.8125ZM10.5625 23.5625C10.5625 24.0104 10.1983 24.375 9.75 24.375H2.4375C1.98919 24.375 1.625 24.0104 1.625 23.5625V16.25C1.625 15.8021 1.98919 15.4375 2.4375 15.4375H9.75C10.1983 15.4375 10.5625 15.8021 10.5625 16.25V23.5625Z" fill="white" fill-opacity="0.8" />
</svg>