<svg xmlns="http://www.w3.org/2000/svg" width="20" height="14" viewBox="0 0 20 14" fill="none">
                        <path fill-rule="evenodd" clip-rule="evenodd" d="M8.95702 10.1263H19.3333C19.7014 10.1263 20 10.4343 20 10.814C20 11.1937 19.7014 11.5017 19.3333 11.5017H8.9568C8.66237 12.6519 7.64673 13.5 6.43903 13.5C5.23023 13.5 4.21415 12.6505 3.92038 11.499H0.66674C0.299902 11.499 0.00262493 11.1924 0.00262493 10.814C0.00262493 10.4356 0.299902 10.129 0.66674 10.129H3.92038C4.21393 8.97745 5.23023 8.12799 6.43903 8.12799C7.64673 8.12799 8.66236 8.97609 8.95702 10.1263ZM16.373 2.49832H19.333C19.7012 2.49832 19.9998 2.80629 19.9998 3.18601C19.9998 3.56572 19.7012 3.8737 19.333 3.8737H16.373C16.0785 5.02391 15.0629 5.87201 13.8552 5.87201C12.6475 5.87201 11.6319 5.02391 11.3374 3.8737H0.66674C0.298589 3.8737 0 3.56572 0 3.18601C0 2.80629 0.298589 2.49832 0.66674 2.49832H11.3372C11.6316 1.34811 12.6473 0.5 13.855 0.5C15.0629 0.5 16.0785 1.34811 16.373 2.49832Z" fill="white"/>
                      </svg>