 <svg width="53" height="72" viewBox="0 0 53 72" fill="none" xmlns="http://www.w3.org/2000/svg">
    <path d="M16.6138 16.5991C15.9057 15.8457 16.1713 14.6463 17.1154 14.3787C18.1971 14.0615 19.151 15.1816 18.679 16.1927C18.4528 16.6685 17.9906 16.946 17.4005 16.946C16.9973 16.946 16.8892 16.8964 16.6138 16.5991Z" fill="#556979" />
    <path fill-rule="evenodd" clip-rule="evenodd" d="M16.4859 4.10972C16.4171 2.30567 16.3679 0.650309 16.3679 0.412413V-0.00390625H17.4792C18.6495 -0.00390625 19.5837 0.10513 20.5475 0.343026C21.3735 0.551186 23.0158 1.39374 23.5961 1.90918L24.0878 2.34532L25.6612 2.4048C29.949 2.55348 34.512 4.07007 38.2982 6.61755C43.9824 10.4239 47.6505 16.2325 48.7323 23.1414C48.8798 24.0435 48.9486 25.114 48.988 26.7099C49.047 29.3763 48.9093 30.883 48.3684 33.5792C47.9652 35.6211 47.6309 36.8106 46.4114 40.5376C44.6413 45.9696 44.5036 46.6139 44.4249 49.5777C44.3856 50.896 44.4151 52.036 44.4937 52.7596L44.6118 53.8896L45.2215 54.177C46.8441 54.9502 47.7292 56.7939 47.3162 58.5385L47.1785 59.1431L47.798 59.4107C48.6241 59.7775 49.2043 60.3029 49.6174 61.076C49.9321 61.6609 49.9517 61.7501 49.9517 62.662V63.6235L50.3746 63.7821C50.945 64.0101 51.8301 64.8427 52.1349 65.4573C52.4693 66.1214 52.5578 67.3406 52.3218 68.0543C51.9087 69.3033 50.8663 70.0863 49.3617 70.2648C47.5128 70.5027 42.3696 70.81 37.5115 70.9785C32.8599 71.1371 15.2665 71.0379 11.5 70.8298C7.58598 70.6117 4.36037 70.3837 3.53429 70.2648C2.64922 70.1359 1.97066 69.8187 1.43961 69.2735C0.230002 68.0246 0.161163 66.1313 1.28226 64.7535C1.64613 64.3074 2.51154 63.7325 2.82623 63.7325C2.98358 63.7325 2.99341 63.6631 2.93441 63.0981C2.75739 61.3833 3.81949 59.7577 5.35362 59.3612L5.81583 59.2422L5.66832 58.6376C5.20611 56.6452 6.19936 54.7321 8.02852 54.1076L8.53007 53.9391L8.5399 51.0844C8.55957 48.9334 8.60874 47.962 8.72675 47.1987C9.48398 42.5399 11.028 38.912 13.6635 35.5814C14.5584 34.4514 14.765 34.2235 17.4595 31.4183C18.738 30.0801 20.1344 28.5833 20.5671 28.0877C21.344 27.2055 22.2291 25.9863 22.1504 25.9169C22.1308 25.8971 21.8259 25.9466 21.4817 26.0358C20.8228 26.2044 18.7183 26.2737 18.2266 26.135C17.9807 26.0755 17.9611 26.0953 17.8922 26.4423C17.7644 27.1659 17.2432 28.0778 16.5744 28.7518C15.4828 29.862 14.2339 30.3477 12.5228 30.3378C11.323 30.3378 10.4477 30.1297 9.38564 29.6142C8.69725 29.2772 8.39239 29.0591 7.66466 28.3058C6.38621 27.0172 5.81583 25.798 5.68798 24.1624C5.56014 22.5368 5.99284 21.0698 7.00577 19.6919C7.83184 18.552 13.634 10.8204 14.5584 9.61108C15.001 9.03616 15.6402 8.30265 15.9844 7.97554L16.6039 7.3808L16.4859 4.10972ZM23.8223 7.70791C23.3502 5.72543 22.2881 4.26832 20.7835 3.5348C20.3803 3.33656 19.8886 3.14822 19.6919 3.10857L19.3182 3.0491V4.52604L19.8197 4.95227C20.4393 5.47763 20.7638 5.97324 20.9507 6.64728C21.1277 7.34115 21.1277 7.88633 20.931 9.24432C20.7146 10.7213 20.6851 10.8006 20.2623 10.8006C20.0066 10.8006 19.7902 10.6816 19.2297 10.2058C18.8363 9.87871 18.4823 9.61108 18.4429 9.61108C18.2856 9.61108 17.7054 10.3446 14.4011 14.6961C9.14002 21.6395 8.82167 22.0381 8.68626 22.4921C8.67031 22.5456 8.6569 22.5998 8.63824 22.6656C8.43173 23.3694 8.49073 24.3507 8.77592 25.005C8.99228 25.5006 9.82818 26.3927 10.3297 26.6802L10.6248 26.8487L11.3426 25.9268C12.031 25.0446 12.5621 24.5787 12.7096 24.7274C12.7489 24.7572 12.7883 25.4312 12.8079 26.2143L12.8473 27.6317L13.2111 27.5326C14.0176 27.3046 14.5978 26.8487 14.9321 26.1944C15.0108 26.0259 15.1485 25.4907 15.237 25.0149C15.4042 24.0236 15.6009 23.6371 16.0827 23.3C16.4073 23.082 16.4564 23.0721 17.4989 23.1514C18.0987 23.2009 19.1608 23.2307 19.8591 23.2406C21.4129 23.2406 22.2193 23.0225 23.3207 22.2791C25.4941 20.8021 26.4086 18.324 25.8088 15.4594C25.4154 13.5859 25.4351 13.3282 26.0251 13.0209C26.389 12.8326 26.861 12.902 27.2249 13.1894C27.5691 13.467 27.9329 14.2104 28.1886 15.1422C28.4935 16.2623 28.4837 18.7205 28.1886 19.9497C27.8641 21.2878 27.8739 21.3077 28.759 21.3077C29.4376 21.3077 29.7129 21.1491 29.8801 20.6733C30.4702 19.0576 30.3325 15.9153 29.5851 13.913C28.6902 11.4944 26.743 9.41283 24.786 8.79826C24.4025 8.67932 24.0779 8.57028 24.0583 8.56037C24.0386 8.55046 23.9304 8.16387 23.8223 7.70791ZM30.6275 6.34991C30.6275 6.21114 30.3128 6.08228 29.3982 5.84438C29.0245 5.75517 28.5033 5.64614 28.2575 5.60649C27.8444 5.54701 27.8051 5.55692 27.6969 5.79482C27.6281 5.93359 27.5789 6.07237 27.5789 6.1021C27.5789 6.15167 27.7658 6.23096 29.1721 6.7365L30.2243 7.12308L30.4308 6.79597C30.539 6.60763 30.6275 6.40939 30.6275 6.34991ZM35.9478 8.53063C35.7905 8.39186 35.1414 7.98545 34.5219 7.63852C33.7941 7.24202 33.2237 6.99422 32.9484 6.96448C32.5747 6.91492 32.5059 6.94465 32.2698 7.23211C31.9453 7.61869 31.906 8.31256 32.1912 8.77844C32.4173 9.15511 33.2237 9.87871 34.0597 10.4437C34.5907 10.8006 34.7284 10.86 34.8759 10.7609C35.1808 10.5726 36.0462 9.44257 36.1347 9.10555C36.2133 8.828 36.1937 8.75862 35.9478 8.53063ZM30.0178 9.44257C29.8408 9.25423 29.4277 8.95686 29.1032 8.76853C28.051 8.1837 28.0313 8.263 28.9852 9.25423C29.4868 9.77959 29.949 10.2058 30.008 10.2058C30.0768 10.2058 30.1751 10.1166 30.244 9.99766C30.3325 9.81924 30.303 9.73994 30.0178 9.44257ZM41.2386 13.2093C40.5896 12.3271 39.0653 10.8204 38.6621 10.6519C38.1408 10.4338 37.7671 10.4635 37.423 10.751C36.8329 11.2664 36.7641 12.3469 37.2853 13.3084C37.6688 14.0122 38.9768 15.7567 39.1243 15.7567C39.4685 15.7567 41.3271 14.4285 41.5435 14.032C41.6615 13.804 41.6418 13.7346 41.2386 13.2093ZM32.6435 12.783C33.3221 12.783 33.3614 12.2973 32.7419 11.653C32.2305 11.1376 31.8666 11.0484 31.7683 11.425C31.6208 12.0198 32.1223 12.783 32.6435 12.783ZM36.8034 15.9252C36.6559 15.5089 35.8396 14.4582 35.4463 14.1906C35.2693 14.0716 35.0037 13.9725 34.8562 13.9725C34.5415 13.9725 34.1875 14.3194 34.1088 14.7259C33.9908 15.3404 34.8661 17.194 35.3381 17.313C35.6921 17.4022 36.5674 16.9165 36.7542 16.5299C36.8624 16.292 36.8821 16.1532 36.8034 15.9252ZM44.2872 18.2249C43.8348 17.313 43.3923 16.7678 42.9498 16.5894C42.2909 16.3118 41.7008 16.5299 41.337 17.1742C40.9436 17.878 41.1108 19.0377 41.809 20.4354C41.9959 20.8319 42.0844 20.9112 42.3105 20.9112C42.6646 20.9112 44.2577 20.2272 44.5626 19.9398C44.8773 19.6424 44.8183 19.2855 44.2872 18.2249ZM34.4334 21.8429C34.3055 20.5246 33.6073 18.3042 33.0467 17.4617C32.7222 16.966 32.496 16.8471 32.3092 17.0751C32.2502 17.1544 32.1617 17.8383 32.1026 18.6412C32.0535 19.4243 31.9453 20.4255 31.8666 20.8616C31.7259 21.5648 31.6656 21.8347 31.769 21.938C31.8391 22.008 31.9843 22.0015 32.2305 22.0015C32.673 22.0015 33.7155 22.2295 34.3055 22.4575C34.4825 22.5269 34.4924 22.4872 34.4334 21.8429ZM39.4685 20.4849C39.0948 19.5928 38.7309 19.0476 38.308 18.7602C37.6295 18.3042 36.6657 18.5718 36.3609 19.3054C36.1543 19.7911 36.1642 20.7228 36.3805 21.9718C36.5575 22.963 36.5674 22.9928 36.8231 22.9928C37.4623 22.9928 39.2029 22.3881 39.5471 22.0412C39.852 21.7339 39.8323 21.3572 39.4685 20.4849ZM45.6247 22.5071C45.546 22.3485 45.4083 22.1502 45.3297 22.061C45.074 21.8132 44.3167 21.8528 43.8939 22.1403C43.2841 22.5566 43.1661 22.9531 43.1858 24.3805C43.1956 25.0644 43.2448 25.8178 43.2841 26.0656C43.3628 26.4621 43.3923 26.5116 43.6087 26.4819C44.0217 26.4224 45.428 25.9962 45.7525 25.8277C46.0279 25.679 46.0672 25.6195 46.0672 25.2429C46.0672 24.549 45.782 22.8143 45.6247 22.5071ZM28.9557 23.9642C28.9557 23.647 28.759 23.3793 28.4148 23.2307C27.6773 22.9234 27.2347 23.1514 26.6938 24.1029C26.6755 24.1338 26.6556 24.1671 26.6345 24.2027C26.3835 24.6246 25.9469 25.3585 25.6022 25.907C25.2285 26.5116 24.9237 27.0965 24.9237 27.2055C24.9237 27.5921 25.2679 27.7903 25.9858 27.83C26.9692 27.8795 27.0479 27.7903 28.0805 25.8277C28.5623 24.9158 28.9557 24.0732 28.9557 23.9642ZM34.6989 25.1735C34.3645 24.5688 33.6663 23.9741 33.0861 23.7957C32.0043 23.4685 31.2077 23.865 30.4702 25.0942C30.0866 25.7286 29.5753 26.918 29.4572 27.4731C29.4192 27.638 29.3959 27.7376 29.4322 27.8041C29.4898 27.9095 29.6974 27.9316 30.2341 27.9985C31.3749 28.1472 33.0271 28.841 34.217 29.6737L34.7087 30.0107L34.8366 29.2574C34.8956 28.841 34.9644 27.8696 34.9841 27.1064L35.0037 25.7187L34.6989 25.1735ZM40.7272 25.005C40.5306 24.6283 40.1864 24.321 39.7537 24.1327C39.1833 23.9047 38.6621 23.9741 38.1015 24.3805C37.4721 24.8365 37.0689 25.9566 37.0001 27.4533L36.9706 28.1967L39.1243 28.2265L41.2681 28.2463L41.1993 27.4831C41.1108 26.4323 40.8944 25.342 40.7272 25.005ZM45.9885 29.8025C46.1066 28.3058 46.0967 28.2364 45.9197 28.058C45.1821 27.3443 43.884 28.1769 43.5202 29.6043C43.4021 30.0404 43.1858 32.1121 43.2448 32.1716C43.3038 32.241 45.664 31.5669 45.7722 31.4579C45.8312 31.3984 45.9197 30.655 45.9885 29.8025ZM25.2187 29.8422C25.1597 29.6737 25.0024 29.4853 24.8843 29.406C24.0386 28.841 23.3109 29.2871 21.8456 31.2498C20.8327 32.6077 20.7441 33.1034 21.4325 33.4503C21.6489 33.5494 22.0718 33.6585 22.3668 33.6783C23.065 33.7278 23.301 33.5494 23.8518 32.5284C24.0779 32.1121 24.5106 31.3984 24.8057 30.9524C25.317 30.1792 25.3367 30.1197 25.2187 29.8422ZM33.9023 31.6066C33.4106 30.8929 32.4272 30.2387 31.2569 29.8323C30.1653 29.4556 28.8279 29.525 28.051 30.0107C27.4412 30.3973 26.5758 31.4183 26.1333 32.3005C25.5924 33.3512 25.5826 33.5692 26.0841 33.6485C27.4019 33.8567 28.759 34.4019 29.6343 35.066C29.9391 35.294 29.9981 35.3039 30.2735 35.1949C31.1192 34.8578 31.9945 34.5803 32.9091 34.3821C33.4696 34.2631 33.981 34.1144 34.0498 34.045C34.1383 33.9657 34.1875 33.6188 34.1973 32.9943C34.217 32.0923 34.2072 32.0527 33.9023 31.6066ZM40.6584 30.764C40.5601 30.5361 40.324 30.2288 40.1175 30.0702C39.3898 29.5151 38.2589 29.6737 37.541 30.4369C36.9804 31.0416 36.4395 32.4392 36.2822 33.7179L36.2133 34.2532L36.9411 34.1838C37.3344 34.1442 38.3769 34.0748 39.2423 34.0351L40.8256 33.9657L40.8846 33.262C40.9633 32.3005 40.8748 31.2597 40.6584 30.764ZM44.9658 35.3931C45.2805 34.2135 45.3493 33.8369 45.251 33.7774C45.192 33.7378 45.1133 33.708 45.0838 33.708C44.061 33.8864 43.4808 34.3821 42.9694 35.5022C42.7629 35.9482 42.3892 37.4549 42.4581 37.5342C42.5072 37.5738 44.4347 37.0683 44.4937 36.9989C44.5331 36.9494 44.7494 36.2357 44.9658 35.3931ZM21.5801 35.7896C21.5801 35.6806 21.4522 35.4427 21.3047 35.2742C20.9605 34.8777 20.2524 34.7785 19.7214 35.0561C18.9642 35.4427 17.607 37.7126 17.666 38.4957C17.6955 38.8724 17.725 38.912 18.0889 39.0309C18.3053 39.1003 18.7478 39.1895 19.0723 39.2193C19.8296 39.2887 20.0066 39.1499 20.4295 38.1587C20.6065 37.7523 20.9408 37.098 21.167 36.7015C21.3932 36.315 21.5801 35.8986 21.5801 35.7896ZM28.5427 36.2951C28.2378 35.968 27.7166 35.6508 27.1855 35.4526C25.9366 35.0164 24.786 35.2444 23.8321 36.1365C23.0945 36.8403 22.2684 38.4065 22.2684 39.1003C22.2684 39.3779 22.3963 39.4076 23.7141 39.4869C24.5697 39.5266 25.4056 39.8339 26.2316 40.4088C26.4283 40.5475 26.6152 40.6467 26.625 40.6268C26.6447 40.607 26.7332 40.3394 26.8315 40.042C27.1364 39.1202 27.8346 37.7423 28.3066 37.1278L28.759 36.533L28.5427 36.2951ZM40.2159 37.1773C40.2847 36.6123 40.0585 36.1167 39.616 35.859C38.5539 35.2345 37.0788 35.8293 36.292 37.1873C36.0363 37.6333 35.6036 38.8624 35.5053 39.4473L35.4463 39.7942L37.0001 39.8041C38.2097 39.8041 38.6424 39.8438 38.9768 39.9726C39.2226 40.0717 39.4488 40.1114 39.4881 40.0717C39.5865 39.9627 40.147 37.7324 40.2159 37.1773ZM33.2828 38.3966C33.686 36.7313 33.7351 36.4042 33.6269 36.2852C33.4303 36.087 32.614 36.0572 32.0633 36.2357C31.4536 36.4339 30.8537 36.8403 30.3817 37.3855C29.9785 37.8514 29.3982 39.0012 29.2999 39.5464L29.2409 39.8933L30.3522 39.9032C31.3257 39.9032 31.5421 39.933 32.1026 40.1709C32.4468 40.3096 32.7517 40.4187 32.7615 40.3989C32.7812 40.379 33.0172 39.477 33.2828 38.3966ZM15.379 38.8159C15.5181 38.529 15.6243 38.3099 15.6599 38.228C15.7189 38.0794 15.7385 37.9604 15.6992 37.9604C15.591 37.9604 14.7059 39.1598 14.1946 39.9924C13.7914 40.6665 12.8276 42.5895 12.8276 42.7382C12.8276 42.7877 13.0046 42.8175 13.221 42.8175C13.6635 42.8175 13.6832 42.7976 14.0667 41.7073C14.2044 41.3108 14.5978 40.4286 14.9321 39.7446C15.0892 39.4136 15.2485 39.085 15.379 38.8159ZM42.6449 42.5697L43.176 41.0332C43.4611 40.1907 43.6873 39.4671 43.6775 39.4374C43.648 39.3581 42.9596 39.5266 42.6449 39.6852C42.2515 39.8933 41.7893 40.4286 41.5041 40.9837C41.2583 41.4892 40.8944 42.7877 40.9731 42.8769C41.0026 42.8968 41.3861 42.8373 41.8385 42.7481L42.6449 42.5697ZM19.1215 41.5883C19.1215 41.3009 18.8756 40.9639 18.5315 40.7854C18.1282 40.5773 17.371 40.5971 16.9973 40.8251C16.3384 41.2315 15.7975 42.2624 15.5124 43.66C15.3988 44.214 15.3356 44.5079 15.4526 44.6677C15.5889 44.8538 15.9698 44.8579 16.8006 44.8792C17.5087 44.8891 18.1184 44.8594 18.2266 44.7999C18.3643 44.7305 18.4429 44.5125 18.5315 43.997C18.6003 43.6105 18.7576 42.9562 18.8855 42.5498C19.0133 42.1335 19.1215 41.7073 19.1215 41.5883ZM25.8678 42.4606C25.7793 42.1335 24.9827 41.3504 24.5008 41.1324C23.9108 40.8548 22.8487 40.8647 22.298 41.1423C21.3637 41.6082 20.7146 42.7382 20.6261 44.0268L20.5671 44.7999H22.1406C23.3895 44.7999 23.8714 44.8396 24.4811 44.9982C24.904 45.1072 25.258 45.1964 25.2679 45.1964C25.2875 45.1964 25.3269 45.0279 25.3564 44.8198C25.3957 44.6215 25.5334 44.0565 25.6711 43.5708C25.8088 43.0851 25.8973 42.5895 25.8678 42.4606ZM38.5145 43.8583C38.8391 42.1335 38.7309 41.6082 37.954 41.2315C37.0984 40.8152 35.9478 41.1026 35.2299 41.9055C34.7677 42.421 34.6104 42.7283 34.3645 43.6204C34.2193 44.1513 34.1039 44.439 34.1997 44.5933C34.3311 44.8049 34.8595 44.766 36.2527 44.7603L38.3474 44.7504L38.5145 43.8583ZM31.9748 43.214C32.0436 42.084 31.9158 41.737 31.3159 41.4297C30.893 41.2117 29.89 41.1621 29.4474 41.3405C28.5722 41.6974 27.8149 42.9265 27.6281 44.2746L27.5592 44.7999H31.788L31.847 44.4728C31.8863 44.3043 31.9453 43.7294 31.9748 43.214ZM41.5927 46.9113C41.632 46.5941 41.7697 45.9597 41.8975 45.5037C42.0352 45.0477 42.1237 44.6612 42.1139 44.6512C42.0549 44.5918 41.2976 44.8991 41.0616 45.0676C40.6682 45.355 40.2847 46.2372 40.1864 47.0798C40.1372 47.4862 40.1077 47.8529 40.1274 47.8827C40.147 47.9223 40.3732 47.8827 40.6289 47.8034C41.1479 47.6442 41.3627 47.5828 41.4664 47.4397C41.5434 47.3333 41.5591 47.1817 41.5927 46.9113ZM13.1816 46.5049C13.3488 45.4145 13.3488 45.3649 13.1718 45.0378C13.0243 44.7603 12.9358 44.7008 12.6703 44.7008C12.4342 44.7008 12.2966 44.7702 12.1982 44.9189C12.0409 45.1667 11.677 46.8617 11.5787 47.7836C11.5295 48.2891 11.5492 48.3585 11.7262 48.4576C11.8442 48.5171 12.0507 48.5468 12.1884 48.5171C12.2472 48.5044 12.3203 48.4899 12.3947 48.4751C12.4946 48.4553 12.597 48.435 12.6703 48.4179C12.8473 48.3783 12.9161 48.2891 12.9555 48.0016C12.985 47.7935 13.0833 47.1194 13.1816 46.5049ZM25.022 48.755C25.022 47.3078 24.5795 46.5544 23.5567 46.2471C22.9175 46.0588 22.5438 46.0489 22.0521 46.2273C21.462 46.4454 21.2064 46.6535 20.8917 47.2086C20.6261 47.6745 20.5966 47.8133 20.5966 48.5865V49.4587H25.022V48.755ZM31.8863 48.3882C31.8568 47.1888 31.7093 46.8419 31.0504 46.3859C30.8144 46.2174 30.5488 46.148 30.0571 46.1282C28.4443 46.039 27.4904 46.9311 27.4019 48.636L27.3527 49.4587H31.9256L31.8863 48.3882ZM37.9638 48.5865C38.1015 46.9707 38.0032 46.6436 37.3049 46.2769C36.7739 46.0092 36.0953 46.0291 35.4856 46.3363C34.6595 46.7527 34.2662 47.5357 34.2662 48.7649V49.4587H37.8852L37.9638 48.5865ZM18.2364 48.6856C18.2364 47.615 18.0299 46.9608 17.5874 46.6139C17.1153 46.2571 16.2794 46.1877 15.7779 46.4652C15.237 46.7626 14.8928 47.5159 14.8928 48.4179C14.8928 48.8953 14.8696 49.1548 14.9868 49.2954C15.1446 49.4849 15.557 49.4587 16.6236 49.4587H18.2364V48.6856ZM41.4451 52.254L41.3861 50.9555C41.3173 49.7066 41.3075 49.657 41.1009 49.657C40.9829 49.657 40.7371 49.7561 40.5601 49.8751C40.1077 50.1823 39.9405 50.7176 39.9995 51.5899C40.0585 52.373 40.2552 53.2453 40.3634 53.2056C40.4027 53.1858 40.6584 52.9677 40.9436 52.71L41.4451 52.254ZM12.9063 52.3135C12.9358 51.3817 12.8178 50.7573 12.5719 50.4995C12.3162 50.2517 11.795 50.3112 11.5492 50.6185C11.4979 50.6859 11.4583 50.7319 11.4298 50.7841C11.3326 50.9622 11.3653 51.2124 11.5098 52.6307L11.5787 53.2354L12.8768 53.1759L12.9063 52.3135ZM24.9237 52.5613C24.9237 51.7782 24.7172 51.3917 24.1468 51.0645C23.9009 50.9258 23.5272 50.8266 23.1339 50.7969C21.7079 50.6879 20.7933 51.4511 20.7933 52.7199V53.2254L22.8585 53.2155H24.9237V52.5613ZM31.4536 51.4412C31.2077 51.1637 30.9422 51.0051 30.598 50.896C29.9588 50.7077 29.4179 50.7176 28.8377 50.9258C27.9526 51.243 27.4806 51.917 27.4806 52.8587V53.2254L29.6441 53.2056L31.8076 53.1759V52.5117C31.8076 51.8774 31.788 51.8179 31.4536 51.4412ZM37.5016 51.3024C37.3344 51.1042 37.0394 50.9059 36.8427 50.8465C36.1838 50.668 35.5151 50.7969 34.9742 51.2033C34.5809 51.5106 34.4039 51.8476 34.335 52.482C34.2988 52.7707 34.2719 52.9517 34.347 53.062C34.4756 53.251 34.9033 53.2332 36.0953 53.1957C36.7387 53.1748 37.3042 53.1539 37.5899 53.1433C37.7103 53.1388 37.781 53.1362 37.7868 53.1362C37.7966 53.1263 37.8065 52.7893 37.8065 52.3829C37.8065 51.6989 37.7868 51.6196 37.5016 51.3024ZM18.2168 52.7298C18.2659 52.1053 18.0987 51.6395 17.6955 51.243C17.3907 50.9456 17.2825 50.9059 16.7318 50.8663C16.2106 50.8366 16.0729 50.8663 15.768 51.0844C15.296 51.4115 15.0895 51.8774 15.0895 52.6208V53.2354L18.1873 53.1759L18.2168 52.7298ZM44.5921 56.7047C44.5921 56.556 43.9332 56.0207 43.6185 55.9117C43.2546 55.7927 42.104 55.7927 40.3634 55.9117C35.6823 56.2289 21.6292 56.2983 14.3224 56.0405C9.32664 55.8621 9.26763 55.8621 8.64808 56.4073C7.98919 56.9921 7.96952 57.9735 8.58907 58.5087C8.83493 58.7169 9.00211 58.7565 9.98553 58.8061C12.5916 58.9548 21.2359 59.0836 26.2021 59.0539C31.2077 59.0242 31.5913 59.0143 31.9355 58.8358C32.3583 58.6277 32.6632 58.2312 32.7517 57.8049L32.8107 57.5076L34.2563 57.4481C39.97 57.1904 44.5921 56.8633 44.5921 56.7047ZM47.149 61.7104C47.149 61.5617 46.5589 61.1652 46.1557 61.0562C45.8312 60.9571 44.7593 60.9174 44.6806 60.9967C44.6609 61.0165 42.9203 61.1157 40.8059 61.2148C35.6725 61.4626 17.3513 61.4923 12.3359 61.2544C10.5756 61.1751 8.57924 61.1058 7.90068 61.1058C6.71074 61.1058 6.65173 61.1157 6.24853 61.3833C5.99284 61.5518 5.76666 61.8095 5.67815 62.0177C5.4913 62.4836 5.57981 63.0188 5.87483 63.1279C6.10102 63.2072 8.14653 63.346 12.7293 63.5938C16.6925 63.8019 27.7068 63.8911 32.3485 63.7424C38.0818 63.5541 38.3572 63.5145 38.7604 62.771C38.7998 62.6956 38.8301 62.6356 38.8729 62.5867C39.0436 62.3916 39.4124 62.3725 41.3468 62.2457C44.9461 62.0177 47.149 61.8095 47.149 61.7104ZM26.1038 65.7646C15.65 65.7646 12.9063 65.7051 7.763 65.3681C5.62898 65.2194 4.73407 65.1996 4.29153 65.2888C3.90799 65.3681 3.2196 66.1115 3.14093 66.5278C3.03275 67.1126 3.09175 67.1622 3.94733 67.2316C5.30445 67.3505 9.26763 67.5984 11.5 67.7074C14.5683 67.8561 32.6534 67.9354 35.7905 67.8164C38.6424 67.6975 38.9276 67.638 39.3013 67.0532C39.4586 66.8153 39.6061 66.7062 39.7733 66.7062C40.5601 66.7062 48.929 66.1313 49.4108 66.052L49.755 65.9926L49.3813 65.6654C48.8011 65.1599 48.4668 65.1302 45.133 65.3681C40.5994 65.6853 36.6067 65.7646 26.1038 65.7646Z" fill="#556979" />
</svg>