   <svg xmlns="http://www.w3.org/2000/svg" width="50" height="31" viewBox="0 0 50 31" fill="none">
        <path d="M3.86378 26.2022C5.36485 27.8693 7.33868 29.144 9.56625 29.8878C11.0299 30.3751 12.5711 30.6239 14.1149 30.6239C14.9135 30.6239 15.7094 30.5572 16.4974 30.4239C18.53 30.0827 20.453 29.3082 22.1037 28.1719L24.8868 29.1004C24.8948 29.103 24.9028 29.1055 24.9082 29.1081C24.9135 29.1081 24.9189 29.1107 24.9242 29.1132C24.9482 29.1184 24.9723 29.1261 24.9963 29.1312C25.0017 29.1338 25.007 29.1338 25.0123 29.1338C25.0364 29.1415 25.0604 29.144 25.0845 29.1491C25.0898 29.1491 25.0925 29.1491 25.0978 29.1517C25.1245 29.1543 25.1486 29.1568 25.1753 29.1594C25.1779 29.1594 25.1806 29.1594 25.1833 29.1594C25.21 29.162 25.2394 29.162 25.2661 29.162C25.2955 29.162 25.3222 29.162 25.3516 29.1594C25.3542 29.1594 25.3569 29.1594 25.3569 29.1594C25.3836 29.1568 25.4103 29.1543 25.437 29.1517C25.4397 29.1491 25.445 29.1491 25.4477 29.1491C25.4744 29.144 25.4985 29.1415 25.5225 29.1338C25.5278 29.1338 25.5332 29.1338 25.5385 29.1312C25.5626 29.1261 25.5866 29.1184 25.6106 29.1132C25.6133 29.1107 25.6186 29.1081 25.624 29.1081C25.632 29.1055 25.64 29.103 25.6454 29.1004L28.4312 28.1719C30.0791 29.3082 32.0049 30.0827 34.0375 30.4239C34.8254 30.5572 35.6213 30.6239 36.42 30.6239C37.9611 30.6239 39.5049 30.3751 40.9686 29.8878C43.1962 29.144 45.1673 27.8693 46.6684 26.2022C48.1321 24.5761 49.1176 22.6217 49.5156 20.5467C49.5957 20.144 49.4328 19.7311 49.099 19.4746C47.3415 18.1358 45.2261 17.2278 42.9798 16.8482C40.6641 16.4584 38.2683 16.6456 36.046 17.3868C33.8185 18.1306 31.8473 19.4028 30.3462 21.0725C29.0348 22.5268 28.108 24.2503 27.6432 26.0867L26.4733 26.4766V21.4367C28.1961 20.4108 29.6464 19.0283 30.6934 17.4074C31.9007 15.535 32.5417 13.3908 32.5417 11.2056C32.5417 9.02036 31.9034 6.8736 30.6934 5.00384C29.5262 3.19564 27.8596 1.68495 25.8751 0.638501C25.5278 0.453833 25.1085 0.453833 24.7613 0.638501C22.7768 1.68495 21.1101 3.19564 19.9429 5.00384C18.7329 6.8736 18.0946 9.02036 18.0946 11.2056C18.0946 13.3908 18.7329 15.535 19.9429 17.4074C20.9899 19.0283 22.4402 20.4108 24.163 21.4367V26.5099L22.8943 26.0867C22.4269 24.2503 21.5 22.5268 20.1886 21.0699C18.6875 19.4028 16.7164 18.1281 14.4888 17.3868C12.2666 16.6456 9.87074 16.4584 7.5577 16.8482C5.30876 17.2278 3.19337 18.1358 1.43588 19.4746C1.10201 19.7311 0.941759 20.1415 1.01922 20.5467C1.41719 22.6217 2.40277 24.5761 3.86378 26.2022ZM36.8046 19.4823C40.2635 18.3307 44.139 18.8411 47.0904 20.8058C46.2223 24.0067 43.6422 26.6459 40.21 27.7898C36.7538 28.944 32.8783 28.431 29.9242 26.4689C30.7949 23.268 33.3751 20.6262 36.8046 19.4823ZM20.405 11.2056C20.405 7.86619 22.2719 4.7371 25.3168 2.89812C28.3617 4.7371 30.2287 7.86619 30.2287 11.2056C30.2287 14.5424 28.3617 17.6741 25.3168 19.5131C22.2719 17.6741 20.405 14.5424 20.405 11.2056ZM13.7303 19.4823C17.1598 20.6262 19.7399 23.268 20.6079 26.4689C17.6566 28.431 13.781 28.944 10.3248 27.7898C6.89263 26.6459 4.31249 24.0067 3.44444 20.8058C6.39583 18.8411 10.2714 18.3307 13.7303 19.4823Z" fill="white"/>
    </svg>