  <svg xmlns="http://www.w3.org/2000/svg" width="94" height="52" viewBox="0 0 94 52" fill="none">
    <path d="M10.8359 44.8434H5.23025L4.32413 47.4112H0.5L5.92903 32.8945H10.1678L15.6045 47.4112H11.7343L10.8359 44.8434ZM9.89138 42.1196L8.03307 36.7983L6.19012 42.1196H9.89138Z" fill="white"/>
    <path d="M25.2544 35.3047C26.6558 35.3047 27.775 35.7426 28.6101 36.6183C29.4433 37.4941 29.8618 38.6964 29.8618 40.2252V46.9715H26.222V40.7076C26.222 39.9321 26.0146 39.3309 25.6 38.9042C25.1853 38.4793 24.6286 38.2659 23.9336 38.2659C23.231 38.2659 22.6743 38.4793 22.2596 38.9042C21.8449 39.3309 21.6376 39.9321 21.6376 40.7076V46.9715H17.9824V35.4309H21.6376V36.9597C22.01 36.4513 22.5092 36.0469 23.135 35.75C23.7647 35.4531 24.4712 35.3047 25.2544 35.3047Z" fill="white"/>
    <path d="M36.5661 34.6094C37.405 34.6094 38.1422 34.7764 38.7777 35.1066C39.4112 35.4332 39.9007 35.8673 40.2443 36.4054V34.7727H43.9072V46.291C43.9072 47.3542 43.6884 48.3171 43.2545 49.178C42.8187 50.039 42.1526 50.7236 41.258 51.2338C40.3672 51.7422 39.2576 51.9983 37.933 51.9983C36.161 51.9983 34.7251 51.5938 33.6251 50.7885C32.5289 49.9814 31.905 48.8905 31.7514 47.5156H35.3682C35.4795 47.9553 35.7483 48.3023 36.1745 48.5546C36.6045 48.8107 37.1344 48.9405 37.764 48.9405C38.5166 48.9405 39.1175 48.729 39.5686 48.3097C40.0178 47.8885 40.2443 47.215 40.2443 46.291V44.6583C39.8854 45.1982 39.392 45.6361 38.7623 45.9719C38.1365 46.3096 37.405 46.4766 36.5661 46.4766C35.5774 46.4766 34.6848 46.2317 33.8862 45.7418C33.0875 45.252 32.454 44.5581 31.9894 43.6563C31.5287 42.7509 31.2983 41.7082 31.2983 40.5244C31.2983 39.337 31.5287 38.2961 31.9894 37.3999C32.454 36.5056 33.0875 35.8172 33.8862 35.3367C34.6848 34.8524 35.5774 34.6094 36.5661 34.6094ZM40.2443 40.5393C40.2443 39.6598 39.9909 38.964 39.4841 38.4538C38.9773 37.9454 38.3592 37.6894 37.6335 37.6894C36.9059 37.6894 36.2897 37.9417 35.7829 38.4464C35.276 38.9473 35.0226 39.6394 35.0226 40.5244C35.0226 41.4057 35.276 42.1052 35.7829 42.6247C36.2897 43.1405 36.9059 43.3966 37.6335 43.3966C38.3592 43.3966 38.9773 43.1424 39.4841 42.6322C39.9909 42.1238 40.2443 41.4261 40.2443 40.5393Z" fill="white"/>
    <path d="M50.1996 36.6812C50.6296 36.0485 51.1633 35.5494 51.8045 35.182C52.4496 34.8165 53.1637 34.6328 53.947 34.6328V38.3807H52.941C52.0291 38.3807 51.3438 38.5718 50.8831 38.9522C50.4262 39.3289 50.1996 39.9912 50.1996 40.9412V46.2996H46.5444V34.759H50.1996V36.6812Z" fill="white"/>
    <path d="M61.1579 46.4766C59.985 46.4766 58.931 46.2372 57.9942 45.7567C57.0612 45.2724 56.3278 44.5822 55.7903 43.686C55.2566 42.7917 54.9917 41.7416 54.9917 40.5393C54.9917 39.3574 55.2624 38.3165 55.8057 37.4148C56.347 36.5093 57.09 35.8172 58.0326 35.3367C58.9732 34.8524 60.0291 34.6094 61.1963 34.6094C62.3674 34.6094 63.4251 34.8524 64.3677 35.3367C65.3084 35.8172 66.0494 36.5093 66.5869 37.4148C67.1283 38.3165 67.4009 39.3574 67.4009 40.5393C67.4009 41.7267 67.1264 42.7732 66.5793 43.6786C66.0302 44.5803 65.2815 45.2724 64.3293 45.7567C63.381 46.2372 62.3251 46.4766 61.1579 46.4766ZM61.1579 43.4189C61.8529 43.4189 62.448 43.1721 62.9394 42.6767C63.4347 42.1776 63.6843 41.4651 63.6843 40.5393C63.6843 39.619 63.4424 38.9121 62.9625 38.4167C62.4864 37.9176 61.897 37.6671 61.1963 37.6671C60.4841 37.6671 59.8928 37.912 59.4225 38.4018C58.9502 38.8917 58.716 39.6041 58.716 40.5393C58.716 41.4651 58.9464 42.1776 59.4071 42.6767C59.8717 43.1721 60.4553 43.4189 61.1579 43.4189Z" fill="white"/>
    <path d="M77.1377 38.5459C77.679 38.6312 78.1743 38.8464 78.6197 39.1915C79.0689 39.5329 79.426 39.9615 79.6871 40.4755C79.952 40.9857 80.0864 41.5294 80.0864 42.1082C80.0864 42.8356 79.8944 43.4942 79.5105 44.0824C79.1265 44.6669 78.5659 45.1289 77.8288 45.4703C77.0954 45.8079 76.2315 45.9749 75.2333 45.9749H69.666V31.5547H75.0183C76.0319 31.5547 76.8938 31.718 77.6061 32.0445C78.3164 32.3674 78.852 32.8052 79.211 33.3581C79.568 33.9073 79.7485 34.5271 79.7485 35.2136C79.7485 36.0708 79.5066 36.7777 79.0267 37.3361C78.5506 37.8965 77.9209 38.2991 77.1377 38.5459ZM71.6088 37.7814H74.8877C75.7977 37.7814 76.5041 37.5773 77.0071 37.1654C77.5082 36.7498 77.7597 36.1765 77.7597 35.4436C77.7597 34.7126 77.5082 34.1411 77.0071 33.7292C76.5041 33.3136 75.7823 33.1058 74.8416 33.1058H71.6088V37.7814ZM75.0567 44.4238C76.028 44.4238 76.7863 44.2049 77.3296 43.7633C77.871 43.318 78.1436 42.7057 78.1436 41.9227C78.1436 41.1212 77.8556 40.4903 77.2836 40.0302C76.7153 39.5663 75.9513 39.3326 74.9952 39.3326H71.6088V44.4238H75.0567Z" fill="white"/>
    <path d="M83.7914 32.7905C83.417 32.7905 83.1022 32.6681 82.8468 32.4195C82.5896 32.1727 82.4629 31.8684 82.4629 31.5066C82.4629 31.1504 82.5896 30.8498 82.8468 30.6012C83.1022 30.3488 83.417 30.2227 83.7914 30.2227C84.1446 30.2227 84.446 30.3488 84.6975 30.6012C84.947 30.8498 85.0737 31.1504 85.0737 31.5066C85.0737 31.8684 84.947 32.1727 84.6975 32.4195C84.446 32.6681 84.1446 32.7905 83.7914 32.7905ZM84.7282 34.6311V45.9714H82.7854V34.6311H84.7282Z" fill="white"/>
    <path d="M90.4362 36.1819V42.8688C90.4362 43.418 90.5553 43.8076 90.7971 44.034C91.0429 44.2622 91.4652 44.3754 92.0642 44.3754H93.5001V45.971H91.7417C90.6551 45.971 89.8411 45.7317 89.2997 45.2511C88.7565 44.7669 88.4858 43.9727 88.4858 42.8688V36.1819H86.9653V34.6308H88.4858V31.7734H90.4362V34.6308H93.5001V36.1819H90.4362Z" fill="white"/>
    <path d="M25.829 25.7022C27.3301 27.3693 29.3039 28.644 31.5315 29.3878C32.9951 29.8751 34.5363 30.1239 36.0801 30.1239C36.8787 30.1239 37.6746 30.0572 38.4626 29.9239C40.4952 29.5827 42.4182 28.8082 44.0689 27.6719L46.852 28.6004C46.86 28.603 46.868 28.6055 46.8734 28.6081C46.8787 28.6081 46.8841 28.6107 46.8894 28.6132C46.9134 28.6184 46.9375 28.6261 46.9615 28.6312C46.9669 28.6338 46.9722 28.6338 46.9776 28.6338C47.0016 28.6415 47.0256 28.644 47.0497 28.6491C47.055 28.6491 47.0577 28.6491 47.063 28.6517C47.0897 28.6543 47.1138 28.6568 47.1405 28.6594C47.1432 28.6594 47.1458 28.6594 47.1485 28.6594C47.1752 28.662 47.2046 28.662 47.2313 28.662C47.2607 28.662 47.2874 28.662 47.3168 28.6594C47.3194 28.6594 47.3221 28.6594 47.3221 28.6594C47.3488 28.6568 47.3755 28.6543 47.4022 28.6517C47.4049 28.6491 47.4102 28.6491 47.4129 28.6491C47.4396 28.644 47.4637 28.6415 47.4877 28.6338C47.493 28.6338 47.4984 28.6338 47.5037 28.6312C47.5278 28.6261 47.5518 28.6184 47.5758 28.6132C47.5785 28.6107 47.5839 28.6081 47.5892 28.6081C47.5972 28.6055 47.6052 28.603 47.6106 28.6004L50.3964 27.6719C52.0443 28.8082 53.9701 29.5827 56.0027 29.9239C56.7906 30.0572 57.5866 30.1239 58.3852 30.1239C59.9263 30.1239 61.4701 29.8751 62.9338 29.3878C65.1614 28.644 67.1325 27.3693 68.6336 25.7022C70.0973 24.0761 71.0829 22.1217 71.4808 20.0467C71.561 19.644 71.398 19.2311 71.0642 18.9746C69.3067 17.6358 67.1913 16.7278 64.945 16.3482C62.6293 15.9584 60.2335 16.1456 58.0112 16.8868C55.7837 17.6306 53.8125 18.9028 52.3114 20.5725C51 22.0268 50.0732 23.7503 49.6084 25.5867L48.4386 25.9766V20.9367C50.1613 19.9108 51.6116 18.5283 52.6587 16.9074C53.8659 15.035 54.507 12.8908 54.507 10.7056C54.507 8.52036 53.8686 6.3736 52.6587 4.50384C51.4915 2.69564 49.8248 1.18495 47.8403 0.138501C47.493 -0.0461669 47.0737 -0.0461669 46.7265 0.138501C44.742 1.18495 43.0753 2.69564 41.9081 4.50384C40.6982 6.3736 40.0598 8.52036 40.0598 10.7056C40.0598 12.8908 40.6982 15.035 41.9081 16.9074C42.9551 18.5283 44.4054 19.9108 46.1282 20.9367V26.0099L44.8595 25.5867C44.3921 23.7503 43.4653 22.0268 42.1538 20.5699C40.6527 18.9028 38.6816 17.6281 36.454 16.8868C34.2318 16.1456 31.8359 15.9584 29.5229 16.3482C27.274 16.7278 25.1586 17.6358 23.4011 18.9746C23.0672 19.2311 22.907 19.6415 22.9844 20.0467C23.3824 22.1217 24.368 24.0761 25.829 25.7022ZM58.7698 18.9823C62.2287 17.8307 66.1042 18.3411 69.0556 20.3058C68.1875 23.5067 65.6074 26.1459 62.1752 27.2898C58.719 28.444 54.8435 27.931 51.8894 25.9689C52.7602 22.768 55.3403 20.1262 58.7698 18.9823ZM42.3702 10.7056C42.3702 7.36619 44.2372 4.2371 47.282 2.39812C50.3269 4.2371 52.1939 7.36619 52.1939 10.7056C52.1939 14.0424 50.3269 17.1741 47.282 19.0131C44.2372 17.1741 42.3702 14.0424 42.3702 10.7056ZM35.6955 18.9823C39.125 20.1262 41.7051 22.768 42.5732 25.9689C39.6218 27.931 35.7462 28.444 32.29 27.2898C28.8578 26.1459 26.2777 23.5067 25.4096 20.3058C28.361 18.3411 32.2366 17.8307 35.6955 18.9823Z" fill="white"/>
</svg>