<svg width="35" height="26" viewBox="0 0 35 26" fill="none" xmlns="http://www.w3.org/2000/svg">
<path d="M7.93614 19.1603C7.94787 19.674 7.54342 24.112 9.06385 24.0474C10.1724 24.0003 11.0444 21.508 11.1909 21.1413C12.0373 19.0217 12.5516 16.7254 13.0521 14.5068C13.6859 11.6972 14.1102 8.8319 14.8215 6.04081C14.8612 5.88498 14.9957 5.21642 14.9957 5.81654C14.9957 6.34023 14.8513 8.72736 14.849 8.76936C14.6823 11.8284 14.5208 14.8875 14.3356 17.9455C14.2658 19.0983 14.0909 21.6615 14.0606 22.9354C14.0448 23.5966 13.8041 24.3706 14.1706 24.9164C14.4406 25.3187 14.7934 24.162 14.9957 23.7203C15.7327 22.1114 16.9519 19.017 17.4895 17.5531C19.1869 12.931 20.7338 8.21209 21.6152 3.34963C21.6394 3.2164 21.757 0.906065 21.9178 2.62077C22.3941 7.69916 22.58 12.8016 23.0638 17.8801C23.068 17.924 23.3319 23.1567 24.2557 23.9726C25.3506 24.9397 26.546 22.0388 27.2171 20.7301C29.9653 15.3706 32.1152 9.34622 33.2682 3.4057C33.3763 2.84851 34.0527 0.0252669 32.4338 1.34994C30.7007 2.76812 29.228 4.48952 27.5746 6.00343C24.7081 8.62824 21.1223 11.78 17.9479 13.9835C13.9913 16.73 8.62304 19.9266 3.5537 18.8987C1.63572 18.5097 1.78645 17.3047 1.5 15.7963" stroke="white" stroke-width="1.152" stroke-linecap="round"/>
</svg>
