<svg width="1100" height="141" viewBox="0 0 1100 141" fill="none" xmlns="http://www.w3.org/2000/svg">
<path d="M1.29593e-08 110.881L0 8.20787H34.9207V110.881H1.29593e-08Z" fill="white"/>
<path d="M49.0886 110.881V34.7715H79.9801L80.577 43.2779H82.0694C83.8602 40.5916 85.8997 38.5521 88.188 37.1593C90.5757 35.7664 92.9634 34.8213 95.3512 34.3238C97.8384 33.8264 100.077 33.5776 102.067 33.5776C106.942 33.5776 110.822 34.2243 113.707 35.5177C116.592 36.811 118.731 38.7511 120.124 41.3378C121.616 43.825 122.562 46.9092 122.959 50.5903C123.457 54.2714 123.706 58.4997 123.706 63.2752V110.881H91.7696V70.7369C91.7696 67.6527 91.7198 65.265 91.6203 63.5737C91.5208 61.8824 91.3219 60.6885 91.0234 59.9921C90.7249 59.1961 90.1777 58.7484 89.3818 58.6489C88.6854 58.45 87.7402 58.3505 86.5464 58.3505C85.253 58.3505 84.2084 58.45 83.4125 58.6489C82.6165 58.7484 82.0694 59.1961 81.7709 59.9921C81.4724 60.6885 81.2734 61.8824 81.174 63.5737C81.0745 65.265 81.0247 67.6527 81.0247 70.7369V110.881H49.0886Z" fill="white"/>
<path d="M177.215 110.881V8.20787H215.27C224.821 8.20787 232.581 8.70532 238.55 9.70021C244.619 10.6951 249.345 12.3367 252.728 14.6249C256.11 16.9132 258.548 20.0471 260.04 24.0267C261.533 27.9068 262.428 32.7817 262.726 38.6516C263.124 44.422 263.323 51.3862 263.323 59.5444C263.323 67.7025 263.124 74.7165 262.726 80.5863C262.428 86.3567 261.533 91.2317 260.04 95.2113C258.548 99.0914 256.11 102.176 252.728 104.464C249.345 106.752 244.619 108.394 238.55 109.388C232.581 110.383 224.821 110.881 215.27 110.881H177.215ZM212.136 85.9588H215.718C218.205 85.9588 220.244 85.8593 221.836 85.6603C223.428 85.3618 224.672 84.8146 225.567 84.0187C226.463 83.1233 227.059 81.7305 227.358 79.8402C227.756 77.9499 228.005 75.4129 228.104 72.2292C228.204 68.9461 228.253 64.7675 228.253 59.6936C228.253 54.5201 228.204 50.2918 228.104 47.0087C228.005 43.7256 227.756 41.1388 227.358 39.2485C227.059 37.3582 226.463 35.9654 225.567 35.07C224.672 34.1746 223.428 33.6274 221.836 33.4284C220.244 33.2294 218.205 33.1299 215.718 33.1299H212.136V85.9588Z" fill="white"/>
<path d="M314.797 112.075C306.938 112.075 300.471 111.627 295.397 110.732C290.323 109.737 286.343 108.294 283.458 106.404C280.573 104.414 278.434 101.877 277.041 98.7929C275.748 95.7087 274.902 92.0276 274.504 87.7496C274.206 83.4715 274.056 78.5468 274.056 72.9754C274.056 65.9117 274.355 59.8926 274.952 54.9181C275.549 49.9436 276.991 45.9143 279.28 42.8301C281.667 39.6465 285.398 37.3085 290.472 35.8162C295.546 34.3238 302.56 33.5776 311.514 33.5776C318.777 33.5776 324.647 34.0253 329.124 34.9208C333.7 35.7167 337.232 37.0598 339.719 38.9501C342.306 40.7409 344.147 43.1784 345.241 46.2625C346.336 49.2472 346.982 52.9781 347.181 57.4551C347.48 61.8326 347.629 67.0061 347.629 72.9754V78.7955H305.246C305.246 81.4818 305.396 83.571 305.694 85.0634C305.993 86.5557 306.689 87.6501 307.783 88.3465C308.878 88.9434 310.569 89.3414 312.857 89.5404C315.245 89.6399 318.429 89.6896 322.408 89.6896C324.1 89.6896 326.139 89.6399 328.527 89.5404C330.915 89.4409 333.501 89.3414 336.287 89.2419C339.172 89.0429 341.958 88.844 344.644 88.645V109.09C342.654 109.687 340.018 110.234 336.735 110.732C333.551 111.13 330.019 111.428 326.139 111.627C322.359 111.925 318.578 112.075 314.797 112.075ZM318.081 68.4984V66.1106C318.081 63.126 318.031 60.788 317.931 59.0967C317.832 57.4053 317.533 56.2115 317.036 55.515C316.638 54.7191 315.991 54.2217 315.096 54.0227C314.2 53.8237 313.007 53.7242 311.514 53.7242C310.121 53.7242 308.977 53.8237 308.082 54.0227C307.286 54.2217 306.689 54.7191 306.291 55.515C305.893 56.2115 305.595 57.4053 305.396 59.0967C305.296 60.788 305.246 63.126 305.246 66.1106H320.468L318.081 68.4984Z" fill="white"/>
<path d="M373.091 110.881L353.541 34.7715H385.477L394.58 84.0187H396.222L404.878 34.7715H436.515L416.816 110.881H373.091Z" fill="white"/>
<path d="M481.083 112.075C473.223 112.075 466.756 111.627 461.682 110.732C456.608 109.737 452.629 108.294 449.743 106.404C446.858 104.414 444.719 101.877 443.326 98.7929C442.033 95.7087 441.187 92.0276 440.789 87.7496C440.491 83.4715 440.342 78.5468 440.342 72.9754C440.342 65.9117 440.64 59.8926 441.237 54.9181C441.834 49.9436 443.277 45.9143 445.565 42.8301C447.953 39.6465 451.683 37.3085 456.757 35.8162C461.831 34.3238 468.845 33.5776 477.799 33.5776C485.062 33.5776 490.932 34.0253 495.409 34.9208C499.985 35.7167 503.517 37.0598 506.005 38.9501C508.591 40.7409 510.432 43.1784 511.526 46.2625C512.621 49.2472 513.267 52.9781 513.466 57.4551C513.765 61.8326 513.914 67.0061 513.914 72.9754V78.7955H471.531C471.531 81.4818 471.681 83.571 471.979 85.0634C472.278 86.5557 472.974 87.6501 474.068 88.3465C475.163 88.9434 476.854 89.3414 479.142 89.5404C481.53 89.6399 484.714 89.6896 488.693 89.6896C490.385 89.6896 492.424 89.6399 494.812 89.5404C497.2 89.4409 499.786 89.3414 502.572 89.2419C505.457 89.0429 508.243 88.844 510.929 88.645V109.09C508.94 109.687 506.303 110.234 503.02 110.732C499.836 111.13 496.304 111.428 492.424 111.627C488.644 111.925 484.863 112.075 481.083 112.075ZM484.366 68.4984V66.1106C484.366 63.126 484.316 60.788 484.216 59.0967C484.117 57.4053 483.818 56.2115 483.321 55.515C482.923 54.7191 482.276 54.2217 481.381 54.0227C480.486 53.8237 479.292 53.7242 477.799 53.7242C476.406 53.7242 475.262 53.8237 474.367 54.0227C473.571 54.2217 472.974 54.7191 472.576 55.515C472.178 56.2115 471.88 57.4053 471.681 59.0967C471.581 60.788 471.531 63.126 471.531 66.1106H486.753L484.366 68.4984Z" fill="white"/>
<path d="M525.646 110.881V4.10559e-09L558.179 0V110.881H525.646Z" fill="white"/>
<path d="M607.227 112.075C599.964 112.075 593.945 111.677 589.17 110.881C584.494 110.184 580.763 108.941 577.977 107.15C575.291 105.359 573.301 102.971 572.008 99.9868C570.814 96.9026 570.018 93.1717 569.62 88.7942C569.322 84.3172 569.172 78.9945 569.172 72.8262C569.172 66.6578 569.322 61.3849 569.62 57.0074C570.018 52.5304 570.814 48.7995 572.008 45.8148C573.301 42.7307 575.291 40.2932 577.977 38.5024C580.763 36.7116 584.494 35.4679 589.17 34.7715C593.945 33.9756 599.964 33.5776 607.227 33.5776C614.49 33.5776 620.459 33.9756 625.135 34.7715C629.911 35.4679 633.642 36.7116 636.328 38.5024C639.113 40.2932 641.153 42.7307 642.446 45.8148C643.74 48.7995 644.536 52.5304 644.834 57.0074C645.232 61.3849 645.431 66.6578 645.431 72.8262C645.431 78.9945 645.232 84.3172 644.834 88.7942C644.536 93.1717 643.74 96.9026 642.446 99.9868C641.153 102.971 639.113 105.359 636.328 107.15C633.642 108.941 629.911 110.184 625.135 110.881C620.459 111.677 614.49 112.075 607.227 112.075ZM607.227 89.6896C608.819 89.6896 610.013 89.5901 610.809 89.3911C611.704 89.0927 612.351 88.3963 612.749 87.3019C613.147 86.2075 613.396 84.5162 613.495 82.2279C613.594 79.9397 613.644 76.8057 613.644 72.8262C613.644 68.7471 613.594 65.6132 613.495 63.4244C613.396 61.1362 613.147 59.4449 612.749 58.3505C612.351 57.2561 611.704 56.6094 610.809 56.4104C610.013 56.112 608.819 55.9627 607.227 55.9627C605.635 55.9627 604.392 56.112 603.496 56.4104C602.7 56.6094 602.103 57.2561 601.706 58.3505C601.407 59.4449 601.208 61.1362 601.109 63.4244C601.009 65.6132 600.959 68.7471 600.959 72.8262C600.959 76.8057 601.009 79.9397 601.109 82.2279C601.208 84.5162 601.407 86.2075 601.706 87.3019C602.103 88.3963 602.7 89.0927 603.496 89.3911C604.392 89.5901 605.635 89.6896 607.227 89.6896Z" fill="white"/>
<path d="M656.517 140.578V34.7715H687.409L688.006 43.2779H689.647C691.14 40.5916 692.931 38.5521 695.02 37.1593C697.109 35.7664 699.397 34.8213 701.885 34.3238C704.471 33.8264 707.058 33.5776 709.645 33.5776C713.624 33.5776 717.057 34.1746 719.942 35.3684C722.827 36.4628 725.215 38.4526 727.105 41.3378C728.995 44.223 730.388 48.2026 731.284 53.2765C732.179 58.3505 732.627 64.7675 732.627 72.5277C732.627 80.2879 732.179 86.7049 731.284 91.7789C730.388 96.8528 728.946 100.882 726.956 103.867C725.066 106.752 722.628 108.841 719.643 110.135C716.758 111.329 713.276 111.925 709.197 111.925C706.809 111.925 704.422 111.727 702.034 111.329C699.746 110.931 697.557 110.135 695.468 108.941C693.478 107.647 691.637 105.757 689.946 103.27H688.454V140.578H656.517ZM694.572 87.4511C696.164 87.4511 697.358 87.3516 698.154 87.1526C699.049 86.9537 699.646 86.4065 699.945 85.5111C700.343 84.6157 700.591 83.1731 700.691 81.1833C700.79 79.1935 700.84 76.4078 700.84 72.8262C700.84 69.2446 700.79 66.4589 700.691 64.4691C700.591 62.4793 700.343 61.0367 699.945 60.1413C699.646 59.2459 699.049 58.6987 698.154 58.4997C697.358 58.3007 696.164 58.2012 694.572 58.2012C692.781 58.2012 691.438 58.4002 690.543 58.7982C689.747 59.0966 689.2 60.0915 688.901 61.7829C688.702 62.9767 688.553 64.4691 688.454 66.2599C688.454 67.9512 688.454 70.14 688.454 72.8262C688.454 75.6119 688.454 77.9001 688.454 79.6909C688.553 81.4817 688.653 82.7751 688.752 83.571C689.15 85.4613 689.797 86.6054 690.692 87.0034C691.588 87.3019 692.881 87.4511 694.572 87.4511Z" fill="white"/>
<path d="M743.668 110.881V34.7715H774.559L775.156 43.2779H776.649C778.439 40.5916 780.479 38.5521 782.767 37.1593C785.155 35.7664 787.543 34.8213 789.93 34.3238C792.418 33.8264 794.656 33.5776 796.646 33.5776C802.317 33.5776 806.694 34.3238 809.778 35.8162C812.863 37.3085 815.051 39.7957 816.345 43.2779H817.837C819.628 40.5916 821.667 38.5521 823.956 37.1593C826.343 35.7664 828.731 34.8213 831.119 34.3238C833.606 33.8264 835.894 33.5776 837.984 33.5776C844.251 33.5776 848.928 34.7715 852.012 37.1593C855.096 39.4475 857.135 42.7804 858.13 47.1579C859.125 51.5355 859.623 56.9079 859.623 63.2752V110.881H827.686V70.7369C827.686 67.6527 827.637 65.265 827.537 63.5737C827.438 61.8824 827.189 60.6885 826.791 59.9921C826.493 59.1961 825.995 58.7484 825.299 58.6489C824.702 58.45 823.856 58.3505 822.762 58.3505C821.468 58.3505 820.424 58.45 819.628 58.6489C818.931 58.7484 818.434 59.1961 818.136 59.9921C817.837 60.6885 817.638 61.8824 817.539 63.5737C817.539 65.265 817.539 67.6527 817.539 70.7369V110.881H785.752V70.7369C785.752 67.6527 785.702 65.265 785.603 63.5737C785.503 61.8824 785.254 60.6885 784.856 59.9921C784.558 59.1961 784.06 58.7484 783.364 58.6489C782.767 58.45 781.921 58.3505 780.827 58.3505C779.534 58.3505 778.489 58.45 777.693 58.6489C776.997 58.7484 776.499 59.1961 776.201 59.9921C775.902 60.6885 775.703 61.8824 775.604 63.5737C775.604 65.265 775.604 67.6527 775.604 70.7369V110.881H743.668Z" fill="white"/>
<path d="M911.442 112.075C903.582 112.075 897.115 111.627 892.041 110.732C886.967 109.737 882.988 108.294 880.103 106.404C877.217 104.414 875.078 101.877 873.686 98.7929C872.392 95.7087 871.547 92.0276 871.149 87.7496C870.85 83.4715 870.701 78.5468 870.701 72.9754C870.701 65.9117 870.999 59.8926 871.596 54.9181C872.193 49.9436 873.636 45.9143 875.924 42.8301C878.312 39.6465 882.043 37.3085 887.117 35.8162C892.191 34.3238 899.205 33.5776 908.159 33.5776C915.421 33.5776 921.291 34.0253 925.768 34.9208C930.345 35.7167 933.877 37.0598 936.364 38.9501C938.951 40.7409 940.791 43.1784 941.885 46.2625C942.98 49.2472 943.627 52.9781 943.826 57.4551C944.124 61.8326 944.273 67.0061 944.273 72.9754V78.7955H901.891C901.891 81.4818 902.04 83.571 902.338 85.0634C902.637 86.5557 903.333 87.6501 904.428 88.3465C905.522 88.9434 907.214 89.3414 909.502 89.5404C911.889 89.6399 915.073 89.6896 919.053 89.6896C920.744 89.6896 922.784 89.6399 925.171 89.5404C927.559 89.4409 930.146 89.3414 932.931 89.2419C935.817 89.0429 938.602 88.844 941.289 88.645V109.09C939.299 109.687 936.662 110.234 933.379 110.732C930.195 111.13 926.664 111.428 922.784 111.627C919.003 111.925 915.222 112.075 911.442 112.075ZM914.725 68.4984V66.1106C914.725 63.126 914.675 60.788 914.576 59.0967C914.476 57.4053 914.178 56.2115 913.68 55.515C913.282 54.7191 912.636 54.2217 911.74 54.0227C910.845 53.8237 909.651 53.7242 908.159 53.7242C906.766 53.7242 905.622 53.8237 904.726 54.0227C903.93 54.2217 903.333 54.7191 902.935 55.515C902.537 56.2115 902.239 57.4053 902.04 59.0967C901.941 60.788 901.891 63.126 901.891 66.1106H917.113L914.725 68.4984Z" fill="white"/>
<path d="M956.006 110.881V34.7715H986.897L987.494 43.2779H988.986C990.777 40.5916 992.817 38.5521 995.105 37.1593C997.493 35.7664 999.88 34.8213 1002.27 34.3238C1004.76 33.8264 1006.99 33.5776 1008.98 33.5776C1013.86 33.5776 1017.74 34.2243 1020.62 35.5177C1023.51 36.811 1025.65 38.7511 1027.04 41.3378C1028.53 43.825 1029.48 46.9092 1029.88 50.5903C1030.37 54.2714 1030.62 58.4997 1030.62 63.2752V110.881H998.687V70.7369C998.687 67.6527 998.637 65.265 998.537 63.5737C998.438 61.8824 998.239 60.6885 997.94 59.9921C997.642 59.1961 997.095 58.7484 996.299 58.6489C995.602 58.45 994.657 58.3505 993.463 58.3505C992.17 58.3505 991.125 58.45 990.329 58.6489C989.533 58.7484 988.986 59.1961 988.688 59.9921C988.389 60.6885 988.19 61.8824 988.091 63.5737C987.991 65.265 987.942 67.6527 987.942 70.7369V110.881H956.006Z" fill="white"/>
<path d="M1052.25 110.881V57.1566H1039.71V34.7715H1052.25V12.6849H1084.78V34.7715H1100V57.1566H1084.78V110.881H1052.25Z" fill="white"/>
</svg>
