<svg width="600" height="224" viewBox="0 0 600 224" fill="none" xmlns="http://www.w3.org/2000/svg">
<path d="M103.662 221.455V177.545H0V139.682L74.5861 2.54546H134.002L57.5198 134.909H105.242L121.044 82.0909H158.021V134.909H184.885V177.545H158.021V221.455H103.662Z" fill="white"/>
<path d="M299.416 224C283.193 224 269.708 223.152 258.963 221.455C248.217 219.545 239.684 216.258 233.363 211.591C227.042 206.924 222.302 200.455 219.141 192.182C216.191 183.697 214.295 172.879 213.452 159.727C212.61 146.576 212.188 130.667 212.188 112C212.188 93.3333 212.61 77.4242 213.452 64.2727C214.295 51.1212 216.191 40.4091 219.141 32.1364C222.302 23.6515 227.042 17.0758 233.363 12.4091C239.684 7.74243 248.217 4.56061 258.963 2.86364C269.708 0.954546 283.193 0 299.416 0C315.85 0 329.335 0.954546 339.87 2.86364C350.615 4.56061 359.148 7.74243 365.469 12.4091C371.79 17.0758 376.425 23.6515 379.375 32.1364C382.535 40.4091 384.537 51.1212 385.38 64.2727C386.433 77.4242 386.96 93.3333 386.96 112C386.96 130.667 386.433 146.576 385.38 159.727C384.537 172.879 382.535 183.697 379.375 192.182C376.425 200.455 371.79 206.924 365.469 211.591C359.148 216.258 350.615 219.545 339.87 221.455C329.335 223.152 315.85 224 299.416 224ZM299.416 181.364C305.737 181.364 310.899 181.152 314.902 180.727C318.905 180.091 322.066 178.712 324.383 176.591C326.701 174.47 328.387 170.97 329.44 166.091C330.494 161 331.126 154.106 331.336 145.409C331.758 136.712 331.968 125.576 331.968 112C331.968 98.4242 331.758 87.2879 331.336 78.5909C331.126 69.8939 330.494 63.1061 329.44 58.2273C328.387 53.1364 326.701 49.5303 324.383 47.4091C322.066 45.2879 318.905 44.0152 314.902 43.5909C311.11 42.9545 305.948 42.6364 299.416 42.6364C293.306 42.6364 288.144 42.9545 283.93 43.5909C279.927 44.0152 276.766 45.2879 274.449 47.4091C272.342 49.5303 270.762 53.1364 269.708 58.2273C268.655 63.1061 267.917 69.8939 267.496 78.5909C267.285 87.2879 267.18 98.4242 267.18 112C267.18 125.576 267.285 136.712 267.496 145.409C267.917 154.106 268.655 161 269.708 166.091C270.762 170.97 272.342 174.47 274.449 176.591C276.766 178.712 279.927 180.091 283.93 180.727C287.933 181.152 293.095 181.364 299.416 181.364Z" fill="white"/>
<path d="M518.777 221.455V177.545H415.115V139.682L489.701 2.54546H549.117L472.635 134.909H520.357L536.159 82.0909H573.136V134.909H600V177.545H573.136V221.455H518.777Z" fill="white"/>
</svg>
