 <svg xmlns="http://www.w3.org/2000/svg" width="20" height="21" viewBox="0 0 20 21" fill="none">
                                    <path d="M10.5716 0.700033C10.2292 0.433363 9.75847 0.433363 9.41604 0.700033L8.13212 1.70003C6.63192 2.86843 4.8073 3.50003 2.93209 3.50003H2.29011C1.75829 3.50003 1.32715 3.94775 1.32715 4.50003V10.5557C1.32715 13.9647 3.18183 17.081 6.11797 18.6056L9.56318 20.3944C9.83425 20.5352 10.1534 20.5352 10.4245 20.3944L13.8696 18.6056C16.8058 17.081 18.6605 13.9647 18.6605 10.5557V4.50003C18.6605 3.94775 18.2294 3.50003 17.6975 3.50003H17.0555C15.1803 3.50003 13.3557 2.86843 11.8555 1.70003L10.5716 0.700033Z" fill="white"/>
                                  </svg>