  <svg xmlns="http://www.w3.org/2000/svg" width="20" height="20" viewBox="0 0 20 20" fill="none">
                                    <path d="M9.82483 8.37557C9.97498 8.52325 10.1466 8.58654 10.3397 8.58654C10.5327 8.58654 10.7043 8.52325 10.8545 8.37557L13.1068 6.1604C13.3857 5.88614 13.3857 5.44311 13.1068 5.16885C12.828 4.89459 12.3775 4.89459 12.0986 5.16885L11.069 6.1815V0.696318C11.069 0.316575 10.7472 0.00012207 10.3611 0.00012207C9.97498 0.00012207 9.63177 0.295478 9.63177 0.675221V6.1604L8.60211 5.14775C8.32325 4.87349 7.87278 4.87349 7.59391 5.14775C7.31505 5.42201 7.31505 5.86505 7.59391 6.13931L9.82483 8.37557Z" fill="white"/>
                                    <path d="M18.9449 18.6071H1.74109C1.35497 18.6071 1.0332 18.9236 1.0332 19.3033C1.0332 19.6831 1.35497 19.9995 1.74109 19.9995H18.9449C19.331 19.9995 19.6527 19.6831 19.6527 19.3033C19.6527 18.9236 19.3524 18.6071 18.9449 18.6071Z" fill="white"/>
                                    <path d="M1.67437 16.7086C1.97468 16.7297 8.88193 17.1938 10.3406 17.1938C11.7993 17.1938 18.7065 16.7297 19.0068 16.7086C19.393 16.6875 19.6933 16.3499 19.6718 15.9491C19.6504 15.5694 19.3072 15.274 18.8996 15.2951C18.8352 15.2951 11.7349 15.7803 10.3406 15.7803C8.94628 15.7803 1.84597 15.2951 1.78162 15.2951C1.3955 15.274 1.05228 15.5694 1.00938 15.9491C0.987931 16.3499 1.28825 16.6875 1.67437 16.7086Z" fill="white"/>
                                    <path d="M18.8357 12.004C18.7714 12.004 13.1297 12.9744 10.3411 12.9744C7.57389 12.9744 1.9108 12.0251 1.84645 12.004C1.46033 11.9407 1.09566 12.1938 1.00986 12.5736C0.945502 12.9533 1.20292 13.312 1.58903 13.3964C1.825 13.4386 7.42373 14.3879 10.3196 14.3879C13.2155 14.3879 18.8143 13.4386 19.0502 13.3964C19.4363 13.3331 19.6938 12.9744 19.6294 12.5736C19.5865 12.1938 19.2218 11.9407 18.8357 12.004Z" fill="white"/>
                                    <path d="M1.50239 10.0632C1.674 10.1265 5.96421 11.5611 10.3402 11.5611C14.7163 11.5611 19.0065 10.1265 19.1781 10.0632C19.5427 9.93664 19.7573 9.5358 19.6286 9.15605C19.4998 8.79741 19.0923 8.58644 18.7062 8.71302C18.6633 8.73412 14.4803 10.1265 10.3402 10.1265C6.20018 10.1265 2.01721 8.71302 1.97431 8.71302C1.58819 8.58644 1.18062 8.77631 1.05192 9.15605C0.923209 9.5358 1.11627 9.93664 1.50239 10.0632Z" fill="white"/>
                                  </svg>