  <svg xmlns="http://www.w3.org/2000/svg" width="20" height="21" viewBox="0 0 20 21" fill="none">
                                    <path d="M15.3004 0.500031H1.0402C0.646437 0.500031 0.327148 0.831628 0.327148 1.2407V5.68514C0.327148 6.09421 0.646437 6.42603 1.0402 6.42603H15.3004C15.6943 6.42603 16.0135 6.09421 16.0135 5.68514V4.20381H17.4394V8.64825H8.17036C7.77649 8.64825 7.45731 8.97985 7.45731 9.38892V11.6111H6.38779V18.648C6.38779 19.6708 7.18586 20.5 8.17036 20.5C9.15475 20.5 9.95282 19.6708 9.95282 18.648V11.6111H8.8833V10.1296H18.1525C18.5464 10.1296 18.8655 9.79799 18.8655 9.38892V3.46292C18.8655 3.05385 18.5464 2.72225 18.1525 2.72225H16.0135V1.2407C16.0135 0.831628 15.6943 0.500031 15.3004 0.500031Z" fill="white"/>
                                  </svg>