  <svg xmlns="http://www.w3.org/2000/svg" width="20" height="20" viewBox="0 0 20 20" fill="none">
                                    <path d="M9.44775 15.1105V19.153C9.44775 19.2859 9.55579 19.3934 9.68945 19.3934C9.82311 19.3934 9.93115 19.2859 9.93115 19.153V15.1978L9.68945 15.1543L9.44775 15.1105Z" fill="white"/>
                                    <path d="M7.15723 19.1531C7.15723 19.286 7.26526 19.3935 7.39892 19.3935C7.53258 19.3935 7.64062 19.286 7.64062 19.1531V14.7846L7.15723 14.6973V19.1531Z" fill="white"/>
                                    <path d="M11.8623 19.1532C11.8623 19.2862 11.9703 19.3937 12.104 19.3937C12.2377 19.3937 12.3457 19.2862 12.3457 19.1532V13.8901C12.1765 14.0007 12.0163 14.1216 11.8623 14.2539V19.1532Z" fill="white"/>
                                    <path d="M16.5064 10.1665C13.5734 10.6759 12.5634 11.1832 11.3585 12.7506C11.3353 12.7806 11.2998 12.7977 11.2626 12.7977C11.2555 12.7977 11.248 12.797 11.241 12.7958L2.3749 11.1965C0.650404 11.8651 0.132208 12.8277 0 13.1617L7.1571 14.453L7.64049 14.5403L9.44766 14.8663L9.68935 14.9098L9.93105 14.9533L10.746 15.1005C11.1154 14.6261 11.469 14.2489 11.8624 13.937C12.0159 13.8154 12.1766 13.7041 12.3458 13.6012C13.1889 13.0883 14.2666 12.7849 15.9991 12.4842C18.4881 12.0516 19.3289 10.6901 19.5348 10.2636L17.558 9.90706C17.2433 10.0104 16.8941 10.0992 16.5064 10.1665Z" fill="white"/>
                                    <path d="M2.58138 10.9898L2.83468 11.0354L11.2114 12.5467C12.4426 10.9648 13.4932 10.4464 16.4646 9.93021C16.6604 9.89632 16.8427 9.85472 17.0186 9.81C17.1112 9.78644 17.2033 9.76288 17.2905 9.73667C17.3737 9.71191 17.4512 9.68474 17.5296 9.65781C19.1953 9.08561 19.8249 8.06837 19.9999 7.70966L12.5874 6.37242V8.53119C12.5874 8.61269 12.5649 8.68843 12.5289 8.75574C12.5078 8.79517 12.4825 8.83196 12.4518 8.86393C12.4126 8.90433 12.3662 8.93678 12.3152 8.96155C12.2512 8.9928 12.1801 9.0118 12.104 9.0118C11.9655 9.0118 11.8412 8.95313 11.7533 8.86009C11.7148 8.81946 11.6827 8.77281 11.6602 8.72088C11.6428 8.68097 11.6329 8.63746 11.6269 8.59274C11.6242 8.5723 11.6206 8.55211 11.6206 8.53071V6.19763L10.1726 5.93653V8.33043V8.45257V8.53095C10.1726 8.54585 10.1694 8.5598 10.1682 8.57422C10.146 8.81922 9.94127 9.0118 9.68918 9.0118C9.42234 9.0118 9.20578 8.79638 9.20578 8.53095V8.40064V8.27826V8.15613V5.92139C9.03176 6.21134 8.64239 6.71911 7.88202 7.18313V8.53095C7.88202 8.79638 7.66546 9.0118 7.39862 9.0118C7.13179 9.0118 6.91523 8.79638 6.91523 8.53095V7.65003C6.41516 7.83877 5.82107 7.99648 5.10759 8.09097C1.52009 8.56653 0.643462 10.1584 0.465332 10.6082L2.34234 10.9467L2.58138 10.9898Z" fill="white"/>
                                    <path d="M8.40411 2.58865C8.47783 2.58865 8.55034 2.55523 8.59795 2.49224L9.20654 1.68201L9.44824 1.36008V1.76183V5.56125V5.68339V5.80552V8.19942V8.32156V8.44393V8.53073C9.44824 8.66368 9.55628 8.77115 9.68993 8.77115C9.82335 8.77115 9.93139 8.66392 9.93163 8.53121V8.53073V8.40883V8.2867V5.8928V5.77042V5.64829V1.70702V1.32763L10.1733 1.6207L10.8496 2.44079C10.9344 2.54321 11.0862 2.5586 11.1897 2.47445C11.2931 2.39006 11.3078 2.23883 11.2235 2.13617L10.1721 0.860964L9.9923 0.6429C9.91495 0.549134 9.80619 0.502732 9.67857 0.499847C9.55676 0.502732 9.44534 0.560194 9.37307 0.656844L9.20678 0.878515L8.21124 2.20421C8.13124 2.31048 8.15323 2.46123 8.26006 2.54057C8.30308 2.57302 8.35384 2.58865 8.40411 2.58865Z" fill="white"/>
                                    <path d="M4.90562 4.74535C4.95106 4.81964 5.03082 4.86051 5.11203 4.86051C5.15505 4.86051 5.19832 4.84921 5.23771 4.82541C5.35179 4.75641 5.3878 4.60854 5.3182 4.49506L4.75794 3.58097L4.60447 3.33045C4.60979 3.33069 4.61438 3.33358 4.61969 3.33358C4.7142 3.33358 4.80725 3.33959 4.8991 3.34969C6.16703 3.48865 7.15702 4.55974 7.15702 5.85731V7.2859V7.4215V7.55229V8.53058C7.15702 8.66353 7.26506 8.771 7.39872 8.771C7.53237 8.771 7.64041 8.66353 7.64041 8.53058V7.32197V7.1818V7.03971V5.85731C7.64041 4.41548 6.61369 3.20856 5.24955 2.91933C5.05668 2.87845 4.85728 2.85658 4.65281 2.85417L5.23481 2.67169L6.10927 2.39761C6.2364 2.3577 6.30722 2.22258 6.26709 2.09587C6.22697 1.96941 6.09138 1.89945 5.96377 1.93888L4.11189 2.5195C3.99588 2.55581 3.905 2.64188 3.86222 2.75512C3.81944 2.86836 3.83128 2.99266 3.89485 3.09604L4.90562 4.74535Z" fill="white"/>
                                    <path d="M12.1042 8.77104C12.1666 8.77104 12.222 8.74604 12.265 8.70757C12.314 8.66357 12.3459 8.60154 12.3459 8.53062V6.32834V6.2062V6.08406V5.85734C12.3459 4.55978 13.3357 3.48869 14.6039 3.34972C14.6957 3.33963 14.7888 3.33361 14.8833 3.33361C14.8886 3.33361 14.8934 3.33097 14.8987 3.33049L14.7453 3.58101L14.1853 4.4951C14.1156 4.60858 14.1517 4.75644 14.2657 4.82545C14.3049 4.84949 14.3484 4.86055 14.3914 4.86055C14.4729 4.86055 14.5524 4.81943 14.5978 4.74538L15.6084 3.09656C15.6719 2.99317 15.6838 2.86912 15.641 2.75564C15.5982 2.64216 15.5073 2.55632 15.3911 2.51978L13.5394 1.9394C13.4113 1.89997 13.2765 1.96993 13.2361 2.09639C13.196 2.2231 13.2668 2.35822 13.3939 2.39813L14.2684 2.67221L14.8504 2.85469C14.6459 2.85685 14.4465 2.87897 14.2536 2.91985C12.8895 3.20884 11.8628 4.416 11.8628 5.85783V5.99727V6.11941V6.24154V8.5311C11.8628 8.57125 11.8751 8.60755 11.8928 8.64097C11.9329 8.71719 12.0112 8.77104 12.1042 8.77104Z" fill="white"/>
                                  </svg>