<svg width="15" height="14" viewBox="0 0 15 14" fill="none" xmlns="http://www.w3.org/2000/svg">
  <path d="M13.125 8.00008H8.125V13.0001C8.125 13.2653 8.01964 13.5196 7.83211 13.7072C7.64457 13.8947 7.39022 14.0001 7.125 14.0001C6.85978 14.0001 6.60543 13.8947 6.41789 13.7072C6.23036 13.5196 6.125 13.2653 6.125 13.0001V8.00008H1.125C0.859784 8.00008 0.60543 7.89472 0.417893 7.70718C0.230357 7.51965 0.125 7.26529 0.125 7.00008C0.125 6.73486 0.230357 6.48051 0.417893 6.29297C0.60543 6.10543 0.859784 6.00008 1.125 6.00008H6.125V1.00008C6.125 0.73486 6.23036 0.480506 6.41789 0.292969C6.60543 0.105433 6.85978 7.62939e-05 7.125 7.62939e-05C7.39022 7.62939e-05 7.64457 0.105433 7.83211 0.292969C8.01964 0.480506 8.125 0.73486 8.125 1.00008V6.00008H13.125C13.3902 6.00008 13.6446 6.10543 13.8321 6.29297C14.0196 6.48051 14.125 6.73486 14.125 7.00008C14.125 7.26529 14.0196 7.51965 13.8321 7.70718C13.6446 7.89472 13.3902 8.00008 13.125 8.00008Z" fill="#556979" />
</svg>