<svg width="17" height="18" viewBox="0 0 17 18" fill="none" xmlns="http://www.w3.org/2000/svg">
<path d="M2.60265 3.82386V14.6468C2.60253 14.9558 2.66333 15.2619 2.78155 15.5475C2.89978 15.833 3.07311 16.0925 3.29166 16.3111C3.51021 16.5296 3.76968 16.7029 4.05524 16.8212C4.34081 16.9394 4.64687 17.0002 4.95595 17.0001H11.5445C12.1684 17.0001 12.7667 16.7522 13.2079 16.3111C13.6491 15.8699 13.8969 15.2715 13.8969 14.6476V3.823M0.720703 3.82386H15.7797M5.42643 3.82386V2.41154C5.4262 2.22605 5.46259 2.04233 5.53349 1.87093C5.6044 1.69952 5.70843 1.54379 5.83964 1.41267C5.97084 1.28155 6.12663 1.17761 6.29808 1.10681C6.46953 1.03601 6.65326 0.999737 6.83876 1.00008H9.66168C9.84717 0.999737 10.0309 1.03601 10.2024 1.10681C10.3738 1.17761 10.5296 1.28155 10.6608 1.41267C10.792 1.54379 10.896 1.69952 10.9669 1.87093C11.0378 2.04233 11.0742 2.22605 11.074 2.41154V3.82386M6.36827 13.3175V8.61348M10.133 13.3175V8.61348" stroke="white" stroke-opacity="0.7" stroke-width="1.2973" stroke-linecap="round" stroke-linejoin="round"/>
</svg>
