<svg width="1000" height="159" viewBox="0 0 1000 159" fill="none" xmlns="http://www.w3.org/2000/svg">
<path d="M50.0077 125.186C41.1175 125.186 33.6719 124.575 27.671 123.352C21.67 122.13 16.7804 120.185 13.002 117.518C9.33478 114.74 6.55657 111.128 4.66739 106.683C2.88934 102.127 1.66692 96.5705 1.00015 90.014C0.333385 83.3463 1.13901e-09 75.5117 0 66.5103C-1.13295e-09 57.5089 0.333385 49.7299 1.00015 43.1734C1.66692 36.5057 2.88934 30.9492 4.66739 26.5041C6.55657 21.9478 9.33478 18.3362 13.002 15.6691C16.7804 12.8909 21.67 10.8906 27.671 9.66816C33.6719 8.44575 41.1175 7.83455 50.0077 7.83455C53.5639 7.83455 57.2311 8.00124 61.0095 8.33463C64.7878 8.55688 68.3995 8.89026 71.8445 9.33478C75.4006 9.77929 78.4566 10.3349 81.0126 11.0017V37.0057C76.5674 36.6723 72.9002 36.3945 70.0108 36.1723C67.2326 35.95 65.0101 35.8389 63.3431 35.8389C61.6762 35.7278 60.2871 35.6722 59.1758 35.6722C55.1752 35.6722 51.8969 35.8389 49.341 36.1723C46.8962 36.5057 44.9514 37.2836 43.5067 38.506C42.0621 39.6172 41.0064 41.2842 40.3396 43.5067C39.7839 45.7293 39.4506 48.7298 39.3394 52.5081C39.2283 56.1754 39.1727 60.8428 39.1727 66.5103C39.1727 72.1779 39.2283 76.9008 39.3394 80.6792C39.4506 84.3464 39.7839 87.3469 40.3396 89.6806C41.0064 91.9031 42.0621 93.5701 43.5067 94.6813C44.9514 95.7926 46.8962 96.515 49.341 96.8483C51.8969 97.1817 55.1752 97.3484 59.1758 97.3484C62.5097 97.3484 66.2881 97.2373 70.5109 97.015C74.7338 96.7928 78.4566 96.4594 81.6793 96.0149V122.519C79.2345 122.964 76.1785 123.408 72.5112 123.853C68.9551 124.297 65.2323 124.63 61.3428 124.853C57.4534 125.075 53.675 125.186 50.0077 125.186Z" fill="white"/>
<path d="M135.085 125.186C126.972 125.186 120.249 124.742 114.915 123.853C109.692 123.075 105.525 121.686 102.413 119.685C99.4125 117.685 97.19 115.018 95.7453 111.684C94.4118 108.239 93.5227 104.072 93.0782 99.182C92.7448 94.1813 92.5781 88.2359 92.5781 81.3459C92.5781 74.456 92.7448 68.5662 93.0782 63.6765C93.5227 58.6758 94.4118 54.5084 95.7453 51.1746C97.19 47.7296 99.4125 45.007 102.413 43.0067C105.525 41.0064 109.692 39.6172 114.915 38.8393C120.249 37.9503 126.972 37.5058 135.085 37.5058C143.197 37.5058 149.865 37.9503 155.088 38.8393C160.422 39.6172 164.589 41.0064 167.59 43.0067C170.701 45.007 172.979 47.7296 174.424 51.1746C175.869 54.5084 176.758 58.6758 177.091 63.6765C177.536 68.5662 177.758 74.456 177.758 81.3459C177.758 88.2359 177.536 94.1813 177.091 99.182C176.758 104.072 175.869 108.239 174.424 111.684C172.979 115.018 170.701 117.685 167.59 119.685C164.589 121.686 160.422 123.075 155.088 123.853C149.865 124.742 143.197 125.186 135.085 125.186ZM135.085 100.182C136.863 100.182 138.196 100.071 139.085 99.8488C140.086 99.5154 140.808 98.7375 141.252 97.5151C141.697 96.2927 141.975 94.4035 142.086 91.8476C142.197 89.2916 142.253 85.7911 142.253 81.3459C142.253 76.7897 142.197 73.2891 142.086 70.8443C141.975 68.2884 141.697 66.3992 141.252 65.1768C140.808 63.9544 140.086 63.232 139.085 63.0098C138.196 62.6764 136.863 62.5097 135.085 62.5097C133.307 62.5097 131.918 62.6764 130.917 63.0098C130.028 63.232 129.362 63.9544 128.917 65.1768C128.584 66.3992 128.361 68.2884 128.25 70.8443C128.139 73.2891 128.084 76.7897 128.084 81.3459C128.084 85.7911 128.139 89.2916 128.25 91.8476C128.361 94.4035 128.584 96.2927 128.917 97.5151C129.362 98.7375 130.028 99.5154 130.917 99.8488C131.918 100.071 133.307 100.182 135.085 100.182Z" fill="white"/>
<path d="M190.141 123.853V38.8393H224.647L225.314 48.3408H226.98C228.981 45.3404 231.259 43.0622 233.815 41.5064C236.482 39.9506 239.149 38.8949 241.816 38.3393C244.594 37.7836 247.095 37.5058 249.317 37.5058C255.652 37.5058 260.541 38.3393 263.986 40.0062C267.431 41.6731 269.876 44.4513 271.321 48.3408H272.988C274.988 45.3404 277.266 43.0622 279.822 41.5064C282.489 39.9506 285.156 38.8949 287.823 38.3393C290.601 37.7836 293.157 37.5058 295.491 37.5058C302.492 37.5058 307.715 38.8394 311.16 41.5064C314.605 44.0624 316.883 47.7852 317.995 52.6748C319.106 57.5645 319.662 63.5654 319.662 70.6776V123.853H283.989V79.0122C283.989 75.5673 283.934 72.9002 283.823 71.011C283.711 69.1218 283.434 67.7883 282.989 67.0104C282.656 66.1214 282.1 65.6213 281.322 65.5101C280.655 65.2879 279.711 65.1768 278.488 65.1768C277.044 65.1768 275.877 65.2879 274.988 65.5101C274.21 65.6213 273.654 66.1214 273.321 67.0104C272.988 67.7883 272.765 69.1218 272.654 71.011C272.654 72.9002 272.654 75.5673 272.654 79.0122V123.853H237.149V79.0122C237.149 75.5673 237.093 72.9002 236.982 71.011C236.871 69.1218 236.593 67.7883 236.149 67.0104C235.815 66.1214 235.26 65.6213 234.482 65.5101C233.815 65.2879 232.87 65.1768 231.648 65.1768C230.203 65.1768 229.036 65.2879 228.147 65.5101C227.369 65.6213 226.814 66.1214 226.48 67.0104C226.147 67.7883 225.925 69.1218 225.814 71.011C225.814 72.9002 225.814 75.5673 225.814 79.0122V123.853H190.141Z" fill="white"/>
<path d="M334.37 25.1706V4.58589e-09L370.708 0V25.1706H334.37ZM334.37 123.853V38.8393H370.708V123.853H334.37Z" fill="white"/>
<path d="M385.321 123.853V38.8393H419.827L420.494 48.3408H422.16C424.161 45.3404 426.439 43.0622 428.995 41.5064C431.662 39.9506 434.329 38.8949 436.996 38.3393C439.774 37.7836 442.275 37.5058 444.497 37.5058C449.943 37.5058 454.277 38.2281 457.499 39.6728C460.722 41.1175 463.111 43.2845 464.667 46.1738C466.334 48.952 467.39 52.397 467.834 56.5088C468.39 60.6205 468.668 65.3435 468.668 70.6776V123.853H432.995V79.0122C432.995 75.5673 432.94 72.9002 432.829 71.011C432.718 69.1218 432.495 67.7883 432.162 67.0104C431.829 66.1214 431.217 65.6213 430.328 65.5101C429.551 65.2879 428.495 65.1768 427.161 65.1768C425.717 65.1768 424.55 65.2879 423.661 65.5101C422.772 65.6213 422.16 66.1214 421.827 67.0104C421.494 67.7883 421.271 69.1218 421.16 71.011C421.049 72.9002 420.994 75.5673 420.994 79.0122V123.853H385.321Z" fill="white"/>
<path d="M520.157 158.191C516.49 158.191 512.656 158.08 508.656 157.858C504.655 157.636 500.877 157.302 497.321 156.858C493.876 156.524 490.931 156.135 488.486 155.691V133.187C490.931 133.187 493.32 133.187 495.654 133.187C498.098 133.187 500.543 133.187 502.988 133.187C505.433 133.187 507.878 133.187 510.323 133.187C515.323 133.187 519.157 133.076 521.824 132.854C524.603 132.743 526.547 132.298 527.659 131.52C528.881 130.742 529.603 129.465 529.826 127.686C530.159 126.02 530.326 123.63 530.326 120.519V112.684H528.659C526.77 115.462 524.658 117.574 522.324 119.018C520.102 120.352 517.713 121.241 515.157 121.686C512.601 122.13 509.934 122.352 507.155 122.352C502.599 122.352 498.654 121.686 495.32 120.352C492.098 119.018 489.375 116.796 487.152 113.684C485.041 110.462 483.485 106.128 482.485 100.682C481.485 95.1259 480.985 88.1248 480.985 79.679C480.985 71.2333 481.485 64.2877 482.485 58.8425C483.485 53.286 485.041 49.0076 487.152 46.0071C489.264 42.8955 491.931 40.7285 495.154 39.5061C498.376 38.1726 502.21 37.5058 506.655 37.5058C509.656 37.5058 512.545 37.7836 515.323 38.3393C518.102 38.8949 520.657 39.9506 522.991 41.5064C525.325 43.0622 527.325 45.3404 528.992 48.3408H530.826L531.492 38.8393H565.998V114.684C565.998 121.797 565.609 128.02 564.831 133.354C564.164 138.799 562.386 143.356 559.497 147.023C556.607 150.69 552.051 153.468 545.828 155.357C539.716 157.247 531.159 158.191 520.157 158.191ZM523.491 95.0147C525.714 95.0147 527.27 94.7925 528.159 94.348C529.048 93.9034 529.603 92.7366 529.826 90.8474C530.048 89.5139 530.159 88.0136 530.159 86.3467C530.27 84.5687 530.326 82.4572 530.326 80.0124C530.326 77.6787 530.326 75.6784 530.326 74.0115C530.326 72.2334 530.215 70.7887 529.992 69.6775C529.77 67.4549 529.159 66.1214 528.159 65.6768C527.27 65.2323 525.714 65.0101 523.491 65.0101C521.713 65.0101 520.324 65.1212 519.324 65.3435C518.435 65.5657 517.768 66.1214 517.324 67.0104C516.99 67.8994 516.768 69.3996 516.657 71.5111C516.546 73.5114 516.49 76.3452 516.49 80.0124C516.49 83.6796 516.546 86.569 516.657 88.6804C516.768 90.6807 516.99 92.1254 517.324 93.0144C517.768 93.9034 518.435 94.4591 519.324 94.6813C520.324 94.9036 521.713 95.0147 523.491 95.0147Z" fill="white"/>
<path d="M670.623 125.186C665.845 125.186 660.733 125.019 655.288 124.686C649.842 124.464 644.564 124.13 639.452 123.686C634.34 123.241 629.895 122.741 626.117 122.186V95.6815C630.228 96.0149 634.229 96.3483 638.118 96.6817C642.119 96.9039 645.842 97.0706 649.287 97.1817C652.843 97.2929 655.843 97.3484 658.288 97.3484C662.733 97.3484 666.067 97.2929 668.29 97.1817C670.512 96.9595 672.013 96.5705 672.79 96.0149C673.346 95.5704 673.735 95.0703 673.957 94.5146C674.18 93.959 674.291 93.2922 674.291 92.5143C674.402 91.7364 674.457 90.8474 674.457 89.8473C674.457 88.1803 674.291 86.9024 673.957 86.0133C673.624 85.1243 672.957 84.4575 671.957 84.013C670.957 83.4574 669.457 83.0129 667.456 82.6795C665.456 82.3461 662.789 81.9571 659.455 81.5126L639.952 79.0122C636.507 78.5677 633.673 77.4565 631.451 75.6784C629.228 73.7892 627.45 71.3444 626.117 68.3439C624.894 65.2323 624.005 61.5651 623.449 57.3422C623.005 53.0082 622.783 48.2297 622.783 43.0067C622.783 35.4499 623.95 29.3934 626.283 24.8372C628.617 20.1698 631.84 16.6137 635.951 14.1689C640.174 11.724 645.008 10.0571 650.454 9.16809C655.899 8.27906 661.789 7.83455 668.123 7.83455C672.79 7.83455 677.569 8.00124 682.459 8.33463C687.459 8.66801 692.127 9.11252 696.461 9.66816C700.906 10.1127 704.573 10.6683 707.462 11.3351V37.5058C704.684 37.1724 701.35 36.8946 697.461 36.6724C693.683 36.339 689.793 36.1167 685.792 36.0056C681.792 35.7833 678.013 35.6722 674.457 35.6722C671.79 35.6722 669.623 35.7278 667.956 35.8389C666.289 35.95 665.011 36.2834 664.122 36.839C663.233 37.3947 662.567 38.117 662.122 39.0061C661.789 39.7839 661.622 40.7841 661.622 42.0065C661.622 43.8957 661.789 45.3404 662.122 46.3405C662.456 47.3407 663.289 48.063 664.623 48.5075C665.956 48.8409 668.068 49.2299 670.957 49.6744L688.46 51.8414C691.349 52.1748 694.072 52.7304 696.627 53.5083C699.183 54.2862 701.573 55.5086 703.795 57.1755C706.018 58.7313 707.963 61.1206 709.63 64.3433C710.407 65.6768 711.019 67.3993 711.463 69.5108C712.019 71.6222 712.463 74.1226 712.797 77.0119C713.13 79.7901 713.297 83.0129 713.297 86.6801C713.297 93.6812 712.574 99.5154 711.13 104.183C709.796 108.85 707.796 112.573 705.129 115.351C702.573 118.129 699.517 120.241 695.961 121.686C692.405 123.13 688.46 124.075 684.126 124.519C679.903 124.964 675.402 125.186 670.623 125.186Z" fill="white"/>
<path d="M766.367 125.186C758.255 125.186 751.532 124.742 746.198 123.853C740.975 123.075 736.807 121.686 733.696 119.685C730.695 117.685 728.473 115.018 727.028 111.684C725.695 108.239 724.805 104.072 724.361 99.182C724.028 94.1813 723.861 88.2359 723.861 81.3459C723.861 74.456 724.028 68.5662 724.361 63.6765C724.805 58.6758 725.695 54.5084 727.028 51.1746C728.473 47.7296 730.695 45.007 733.696 43.0067C736.807 41.0064 740.975 39.6172 746.198 38.8393C751.532 37.9503 758.255 37.5058 766.367 37.5058C774.48 37.5058 781.147 37.9503 786.371 38.8393C791.705 39.6172 795.872 41.0064 798.872 43.0067C801.984 45.007 804.262 47.7296 805.707 51.1746C807.152 54.5084 808.041 58.6758 808.374 63.6765C808.818 68.5662 809.041 74.456 809.041 81.3459C809.041 88.2359 808.818 94.1813 808.374 99.182C808.041 104.072 807.152 108.239 805.707 111.684C804.262 115.018 801.984 117.685 798.872 119.685C795.872 121.686 791.705 123.075 786.371 123.853C781.147 124.742 774.48 125.186 766.367 125.186ZM766.367 100.182C768.146 100.182 769.479 100.071 770.368 99.8488C771.368 99.5154 772.091 98.7375 772.535 97.5151C772.98 96.2927 773.257 94.4035 773.369 91.8476C773.48 89.2916 773.535 85.7911 773.535 81.3459C773.535 76.7897 773.48 73.2891 773.369 70.8443C773.257 68.2884 772.98 66.3992 772.535 65.1768C772.091 63.9544 771.368 63.232 770.368 63.0098C769.479 62.6764 768.146 62.5097 766.367 62.5097C764.589 62.5097 763.2 62.6764 762.2 63.0098C761.311 63.232 760.644 63.9544 760.2 65.1768C759.866 66.3992 759.644 68.2884 759.533 70.8443C759.422 73.2891 759.366 76.7897 759.366 81.3459C759.366 85.7911 759.422 89.2916 759.533 91.8476C759.644 94.4035 759.866 96.2927 760.2 97.5151C760.644 98.7375 761.311 99.5154 762.2 99.8488C763.2 100.071 764.589 100.182 766.367 100.182Z" fill="white"/>
<path d="M861.597 125.186C853.485 125.186 846.761 124.742 841.427 123.853C836.204 123.075 832.037 121.686 828.925 119.685C825.925 117.685 823.702 115.018 822.258 111.684C820.924 108.239 820.035 104.072 819.591 99.182C819.257 94.1813 819.09 88.2359 819.09 81.3459C819.09 74.456 819.257 68.5662 819.591 63.6765C820.035 58.6758 820.924 54.5084 822.258 51.1746C823.702 47.7296 825.925 45.007 828.925 43.0067C832.037 41.0064 836.204 39.6172 841.427 38.8393C846.761 37.9503 853.485 37.5058 861.597 37.5058C869.709 37.5058 876.377 37.9503 881.6 38.8393C886.934 39.6172 891.102 41.0064 894.102 43.0067C897.214 45.007 899.492 47.7296 900.937 51.1746C902.381 54.5084 903.27 58.6758 903.604 63.6765C904.048 68.5662 904.27 74.456 904.27 81.3459C904.27 88.2359 904.048 94.1813 903.604 99.182C903.27 104.072 902.381 108.239 900.937 111.684C899.492 115.018 897.214 117.685 894.102 119.685C891.102 121.686 886.934 123.075 881.6 123.853C876.377 124.742 869.709 125.186 861.597 125.186ZM861.597 100.182C863.375 100.182 864.709 100.071 865.598 99.8488C866.598 99.5154 867.32 98.7375 867.765 97.5151C868.209 96.2927 868.487 94.4035 868.598 91.8476C868.709 89.2916 868.765 85.7911 868.765 81.3459C868.765 76.7897 868.709 73.2891 868.598 70.8443C868.487 68.2884 868.209 66.3992 867.765 65.1768C867.32 63.9544 866.598 63.232 865.598 63.0098C864.709 62.6764 863.375 62.5097 861.597 62.5097C859.819 62.5097 858.43 62.6764 857.43 63.0098C856.541 63.232 855.874 63.9544 855.429 65.1768C855.096 66.3992 854.874 68.2884 854.763 70.8443C854.652 73.2891 854.596 76.7897 854.596 81.3459C854.596 85.7911 854.652 89.2916 854.763 91.8476C854.874 94.4035 855.096 96.2927 855.429 97.5151C855.874 98.7375 856.541 99.5154 857.43 99.8488C858.43 100.071 859.819 100.182 861.597 100.182Z" fill="white"/>
<path d="M916.654 123.853V38.8393H951.159L951.826 48.3408H953.493C955.493 45.3404 957.771 43.0622 960.327 41.5064C962.994 39.9506 965.661 38.8949 968.328 38.3393C971.107 37.7836 973.607 37.5058 975.83 37.5058C981.275 37.5058 985.609 38.2281 988.832 39.6728C992.054 41.1175 994.444 43.2845 995.999 46.1738C997.666 48.952 998.722 52.397 999.167 56.5088C999.722 60.6205 1000 65.3435 1000 70.6776V123.853H964.328V79.0122C964.328 75.5673 964.272 72.9002 964.161 71.011C964.05 69.1218 963.828 67.7883 963.494 67.0104C963.161 66.1214 962.55 65.6213 961.661 65.5101C960.883 65.2879 959.827 65.1768 958.494 65.1768C957.049 65.1768 955.882 65.2879 954.993 65.5101C954.104 65.6213 953.493 66.1214 953.159 67.0104C952.826 67.7883 952.604 69.1218 952.493 71.011C952.382 72.9002 952.326 75.5673 952.326 79.0122V123.853H916.654Z" fill="white"/>
</svg>
